<?xml version="1.0" encoding="UTF-8" standalone="no"?>
<!-- Generator: Adobe Illustrator 16.0.0, SVG Export Plug-In . SVG Version: 6.00 Build 0)  -->

<svg
   xmlns:dc="http://purl.org/dc/elements/1.1/"
   xmlns:cc="http://creativecommons.org/ns#"
   xmlns:rdf="http://www.w3.org/1999/02/22-rdf-syntax-ns#"
   xmlns:svg="http://www.w3.org/2000/svg"
   xmlns="http://www.w3.org/2000/svg"
   xmlns:sodipodi="http://sodipodi.sourceforge.net/DTD/sodipodi-0.dtd"
   xmlns:inkscape="http://www.inkscape.org/namespaces/inkscape"
   version="1.1"
   id="Capa_1"
   x="0px"
   y="0px"
   width="82.320076"
   height="79.142426"
   viewBox="0 0 82.320079 79.142425"
   enable-background="new 0 0 595.28 841.89"
   xml:space="preserve"
   inkscape:version="0.48.4 r9939"
   sodipodi:docname="logo.svg"><metadata
     id="metadata289"><rdf:RDF><cc:Work
         rdf:about=""><dc:format>image/svg+xml</dc:format><dc:type
           rdf:resource="http://purl.org/dc/dcmitype/StillImage" /></cc:Work></rdf:RDF></metadata><defs
     id="defs287" /><sodipodi:namedview
     pagecolor="#ffffff"
     bordercolor="#666666"
     borderopacity="1"
     objecttolerance="10"
     gridtolerance="10"
     guidetolerance="10"
     inkscape:pageopacity="0"
     inkscape:pageshadow="2"
     inkscape:window-width="1366"
     inkscape:window-height="716"
     id="namedview285"
     showgrid="false"
     inkscape:zoom="1.1005311"
     inkscape:cx="329.56084"
     inkscape:cy="5.2867588"
     inkscape:window-x="0"
     inkscape:window-y="0"
     inkscape:window-maximized="1"
     inkscape:current-layer="Capa_1"
     showguides="true"
     inkscape:guide-bbox="true"
     fit-margin-top="0"
     fit-margin-left="0"
     fit-margin-right="0"
     fit-margin-bottom="0"><sodipodi:guide
       orientation="1,0"
       position="58.489428,24.590476"
       id="guide3712" /></sodipodi:namedview><g
     id="g3"
     transform="matrix(0.17996852,0,0,0.17996852,-8.5692437,-22.78358)"><path
       clip-rule="evenodd"
       d="m 143.25058,302.14598 c -0.201,2.447 -11.59631,14.11184 -15.08631,13.20384 -4.52411,-1.17452 -11.42894,-21.27327 -10.00621,-27.78633 1.10051,-5.03796 -4.53737,-9.08162 -5.11525,-11.1012 -0.739,-2.58 -4.89496,-11.0454 -2.18396,-13.0004 3.122,-2.255 6.406,5.5854 8.225,7.7754 3.405,4.099 18.24728,15.74188 21.16028,20.24788 10e-4,0.004 3.00645,10.66081 3.00645,10.66081 z"
       id="path199-6"
       inkscape:connector-curvature="0"
       style="fill:#b6b6b6;fill-rule:evenodd"
       sodipodi:nodetypes="ccsccccc" /><path
       clip-rule="evenodd"
       d="m 122.20962,329.68731 c -5.71642,2.45482 -48.664044,4.65656 -35.580521,-56.46531 -1.969,-3.174 -3.167,-6.225 -0.438,-9.556 2.577,-3.148 0.968157,-7.15528 4.059391,-5.62039 1.275527,0.63334 1.75809,-3.83545 3.077324,-2.76826 3.033432,2.45387 6.703596,7.99251 9.533386,16.27577 1.05744,3.09531 2.54362,4.13092 3.68502,8.06274 2.01763,6.9502 4.1711,17.49084 9.63757,25.47208 6.95064,10.14818 34.42258,12.40484 6.02583,24.59937 z"
       id="path95-5"
       inkscape:connector-curvature="0"
       style="fill:#b6b6b6;fill-rule:evenodd"
       sodipodi:nodetypes="sccssssss" /><path
       clip-rule="evenodd"
       d="m 425.919,563.388 c -1.022,-18.889 -0.318,-37.64 4.424,-56.072 l 2.56381,-1.63325 c 9.812,6.96 19.05519,11.20225 30.26519,13.68025 13.247,2.924 15.592,10.531 14.047,21.806 -0.473,3.471 -0.887,6.95 0.009,10.794 2.37443,1.78078 -1.65562,11.50467 -22.1835,11.65472 -20.771,-0.572 -8.3415,-0.0327 -29.1255,-0.22972 z"
       id="path21"
       inkscape:connector-curvature="0"
       style="fill:#b6b6b6;fill-rule:evenodd"
       sodipodi:nodetypes="cccccccc" /><path
       style="fill:#b6b6b6;fill-rule:evenodd"
       inkscape:connector-curvature="0"
       id="path3733"
       d="m 274.02135,558.865 c -23.261,-6.903 -47.115,-5.473 -70.897,-5.043 -0.392,0.01 -0.783,0.016 -1.173,0.021 -0.784,0.017 -1.027,-0.626 -0.237,-1.435 3.39,-3.458 6.95,-2.495 9.124,-1.154 -9.324,-2.227 -11.873,-9.856 -9.43,-19.72 1.826,-7.366 0.95,-14.786 1.331,-22.18 0.813,-15.77 3.101,-30.7 21.183,-36.492 1.558,-0.501 2.25,-2.074 2.917,-3.495 5.476,-18.877 16.557,-35.54 21.24,-54.801 1.303,-5.361 3.018,-13.448 12.508,-9.385 9.417,9.312 17.357,19.96 25.951,30.793 3.69,-4.886 0.261,-8.353 0.466,-9.402 -0.297,-4.084 -1.705,-1.865 -0.235,-2.446 0.364,-0.146 0.35,0.245 0.476,1.09 0.348,2.321 1.228,5.015 -1.392,6.288 -1.981,0.963 -3.826,-0.718 -4.833,-2.408 -5.3,-8.871 -13.42,-15.402 -19.466,-23.645 -0.648,-0.99 -1.457,-1.862 -2.124,-2.836 -3.392,-4.958 -2.304,-9.041 2.866,-11.735 3.977,-2.071 5.732,-0.612 10.424,7.833 -1.553,-5.605 -5.501,-9.72 -7.382,-14.988 -2.715,-7.605 -2.994,-14.787 1.803,-21.403 7,-9.659 9.378,-21.748 16.8,-31.147 1.202,-1.521 2.559,-3.535 1.166,-5.321 -1.908,-2.444 -4.333,-0.806 -6.372,0.198 -2.844,1.399 -5.57,3.192 -7.589,5.584 -8.264,9.802 -20.363,14.558 -29.759,23.003 -7.747,6.965 -15.26,4.261 -21.997,-5.887 1.693,-5.198 6.465,-6.395 10.716,-8.371 5.406,-2.51 9.57,-5.102 5.06,-12.403 -3.599,-5.83 1.326,-8.352 6.025,-7.601 19.058,3.048 28.16,-7.915 34.744,-23.244 2.012,-4.683 4.457,-9.366 10.398,-10.289 9.006,-0.258 18.17,3.015 26.699,-4.009 3.572,-2.942 9.913,-1.303 15.017,-0.737 4.615,0.511 7.31,3.065 6.997,7.796 -0.478,7.153 2.045,12.627 6.928,17.987 6.164,6.763 5.65,14.307 -1.044,20.962 -1.392,1.385 -3.187,2.418 -4.162,4.146 -1.499,2.655 -1.795,5.525 1.27,7.141 3.038,1.6 4.056,-1.252 5.088,-3.274 1.963,-3.839 3.418,-8.015 7.568,-10.25 15.028,5.738 19.205,14.159 13.286,26.697 -8.885,9.137 -16.396,20 -30.596,22.115 -3.887,0.578 -7.405,4.377 -6.907,8.473 0.694,5.686 6.199,4.649 10.869,5.222 -3.898,-0.68 -8.327,0.167 -9.111,-4.506 -0.759,-4.547 2.473,-8.083 6.216,-8.857 12.97,-2.684 20.196,-12.64 28.658,-21.146 6.975,-1.377 8.516,2.159 7.024,8.014 -3.856,15.15 -3.075,30.335 -0.639,45.56 1.176,7.336 0.193,14.067 -5.197,19.711 -3.005,3.14 -6.404,6.601 -6.695,10.9 -2.607,38.475 -30.319,61.472 -53.521,87.151 -9.964,11.025 -21.488,20.623 -30.06,32.925 z"
       clip-rule="evenodd" /><path
       clip-rule="evenodd"
       d="m 271.052,558.865 c -23.261,-6.903 -47.115,-5.473 -70.897,-5.043 -0.392,0.01 -0.783,0.016 -1.173,0.021 -0.784,0.017 -1.027,-0.626 -0.237,-1.435 3.39,-3.458 6.95,-2.495 9.124,-1.154 -9.324,-2.227 -11.873,-9.856 -9.43,-19.72 1.826,-7.366 0.95,-14.786 1.331,-22.18 0.813,-15.77 3.101,-30.7 21.183,-36.492 1.558,-0.501 2.25,-2.074 2.917,-3.495 5.476,-18.877 16.557,-35.54 21.24,-54.801 1.303,-5.361 3.018,-13.448 12.508,-9.385 9.417,9.312 17.357,19.96 25.951,30.793 3.69,-4.886 0.261,-8.353 0.466,-9.402 -0.297,-4.084 -1.705,-1.865 -0.235,-2.446 0.364,-0.146 0.35,0.245 0.476,1.09 0.348,2.321 1.228,5.015 -1.392,6.288 -1.981,0.963 -3.826,-0.718 -4.833,-2.408 -5.3,-8.871 -13.42,-15.402 -19.466,-23.645 -0.648,-0.99 -1.457,-1.862 -2.124,-2.836 -3.392,-4.958 -2.304,-9.041 2.866,-11.735 3.977,-2.071 5.732,-0.612 10.424,7.833 -1.553,-5.605 -5.501,-9.72 -7.382,-14.988 -2.715,-7.605 -2.994,-14.787 1.803,-21.403 7,-9.659 9.378,-21.748 16.8,-31.147 1.202,-1.521 2.559,-3.535 1.166,-5.321 -1.908,-2.444 -4.333,-0.806 -6.372,0.198 -2.844,1.399 -5.57,3.192 -7.589,5.584 -8.264,9.802 -20.363,14.558 -29.759,23.003 -7.747,6.965 -15.26,4.261 -21.997,-5.887 1.693,-5.198 6.465,-6.395 10.716,-8.371 5.406,-2.51 9.57,-5.102 5.06,-12.403 -3.599,-5.83 1.326,-8.352 6.025,-7.601 19.058,3.048 28.16,-7.915 34.744,-23.244 2.012,-4.683 4.457,-9.366 10.398,-10.289 9.006,-0.258 18.17,3.015 26.699,-4.009 3.572,-2.942 9.913,-1.303 15.017,-0.737 4.615,0.511 7.31,3.065 6.997,7.796 -0.478,7.153 2.045,12.627 6.928,17.987 6.164,6.763 5.65,14.307 -1.044,20.962 -1.392,1.385 -3.187,2.418 -4.162,4.146 -1.499,2.655 -1.795,5.525 1.27,7.141 3.038,1.6 4.056,-1.252 5.088,-3.274 1.963,-3.839 3.418,-8.015 7.568,-10.25 15.028,5.738 19.205,14.159 13.286,26.697 -8.885,9.137 -16.396,20 -30.596,22.115 -3.887,0.578 -7.405,4.377 -6.907,8.473 0.694,5.686 6.199,4.649 10.869,5.222 -3.898,-0.68 -8.327,0.167 -9.111,-4.506 -0.759,-4.547 2.473,-8.083 6.216,-8.857 12.97,-2.684 20.196,-12.64 28.658,-21.146 6.975,-1.377 8.516,2.159 7.024,8.014 -3.856,15.15 -3.075,30.335 -0.639,45.56 1.176,7.336 0.193,14.067 -5.197,19.711 -3.005,3.14 -6.404,6.601 -6.695,10.9 -2.607,38.475 -30.319,61.472 -53.521,87.151 -9.964,11.025 -21.488,20.623 -30.06,32.925 z"
       id="path7"
       inkscape:connector-curvature="0"
       style="fill:#b6b6b6;fill-rule:evenodd" /><path
       clip-rule="evenodd"
       d="m 226.584,469.47 c 0.497,3.516 -0.231,6.176 -4.325,6.903 -17.093,3.042 -17.74,16.917 -19.206,29.873 -1.055,9.325 -0.972,18.774 -1.784,28.132 -0.653,7.534 -0.956,14.527 8.913,17.174 -3.355,0.759 -6.71,1.518 -10.045,2.273 -32.985,1.647 -65.877,4.658 -98.722,8.203 -0.981,-6.297 4.616,-6.358 8.041,-8.062 8.822,-4.386 18.29,-7.403 27.063,-11.873 9.874,-5.028 10.991,-9.927 3.806,-18.425 -8.364,-9.896 -14.533,-20.477 -15.413,-33.726 -0.536,-8.037 -5.403,-13.816 -11.131,-18.863 -6.774,-5.966 -9.335,-13.423 -8.568,-22.238 0.888,-10.201 5.25,-19.675 6.14,-29.932 0.307,-3.532 3.424,-6.78 7.408,-6.382 3.687,0.367 3.93,4.433 4.875,7.338 1.377,4.229 1.331,8.532 0.209,12.833 -1.039,3.985 -0.694,7.823 1.259,11.471 2.312,4.316 5.375,9.188 10.632,7.294 4.749,-1.711 2.006,-6.957 1.189,-10.479 -3.258,-14.048 -9.69,-27.256 -9.084,-42.35 0.231,-5.763 -4.01,-11.291 -10.552,-12.854 -6.182,-1.475 -8.941,3.741 -12.455,7.337 -3.799,3.892 9.36015,147.01366 3.80115,149.24766 C 73.903446,599.70959 83.750798,540.04841 90.533721,510.40864 98.563282,475.32137 62.039239,396.98968 95.321,380.947 c 9.622,-5.514 9.686,-11.918 2.396,-19.639 -4.022,-4.258 -6.94,-9.362 -8.131,-15.255 -1.096,-3.961 -2.191,-7.92 -3.286,-11.88 3.551,-6.686 8.066,2.274 12.307,-1.781 -0.998,-8.105 -7.218,-8.431 -14.099,-7.731 -4.653,-4.538 -4.885,-11.051 -7.396,-16.544 4.931,-5.724 8.065,2.606 13.238,1.251 1.128,-3.963 -1.323,-6.825 -4.317,-9.128 -5.469,-4.209 -6.474,4.385 -10.71,3.987 -7.75,-19.138 -16.573,-37.8 -22.241,-57.821 -3.801,-13.424 -3.133,-27.123 -5.297,-40.59 -0.789,-4.913 1.118,-6.799 6.861,-5.766 13.603,2.449 15.982,14.824 22.4,23.663 -3.379,4.032 -4.234,8.676 -3.33,13.978 2.135,-3.401 -0.16,-8.911 5.329,-10.304 4.255,8.095 8.511,16.191 12.767,24.286 4.44,3.484 5.468,8.456 5.975,13.662 -0.876,4.629 -4.701,7.409 -6.993,11.163 -2.51,3.724 -5.875,4.736 -10.165,3.47 -1.854,-0.549 -3.985,-0.71 -5.218,1.329 -0.622,1.031 -0.293,2.29 0.387,3.286 1.592,2.333 3.81,2.676 6.091,1.316 2.355,-1.4 4.484,-3.218 7.5,-2.221 7.857,2.396 5.494,-4.321 6.771,-7.696 0.806,-2.138 0.74,-5.169 3.709,-5.288 2.778,-0.112 3.459,2.777 4.558,4.775 3.026,5.5 3.881,11.028 0.66,16.879 -2.437,4.425 -4.968,8.986 -3.06,14.223 2.394,0.953 2.977,-0.849 4.007,-1.84 2.207,-2.12 4.3,-5.49 7.791,-2.444 2.951,2.572 4.098,6.212 0.905,9.319 -4.72,4.594 -4.098,10.467 -5.784,16.395 3.037,-0.76 2.72,-2.555 3.113,-3.9 1.144,-3.915 -0.722,-10.109 4.725,-10.873 4.62,-0.651 6.621,4.842 9.055,8.347 1.351,1.943 2.455,4.048 3.218,6.312 1.533,4.794 0.641,9.926 2.111,14.715 1.074,3.045 0.388,6.752 3.407,9.049 2.767,0.581 5.159,-2.547 8.038,-0.819 3.534,1.968 5.271,7.931 10.449,5.863 5.303,-2.119 6.429,-7.333 6.752,-12.605 0.213,-3.461 -0.046,-7.058 2.371,-10.014 1.032,-0.629 2.067,-0.626 3.098,0.003 l -0.185,0.261 c 4.045,5.366 5.924,-0.421 7.039,-2.112 1.845,-2.794 1.782,-6.987 6.716,-6.519 1.662,0.319 2.949,1.18 3.797,2.649 1.013,6.514 5.542,2.737 8.716,2.932 4.473,1.658 8.85,0.284 13.921,-0.314 -5.112,-1.432 -10.448,-2.48 -9.909,-8.487 0.605,-6.743 3.107,-12.792 10.559,-15.235 3.296,-1.08 9.673,-0.359 5.264,-7.242 -0.112,-4.2 2.68,-5.81 6.085,-6.873 1.075,-0.186 2.16,-0.167 3.237,0.01 4.026,0.911 7.865,2.701 12.07,2.67 4.535,-1.055 1.385,-3.283 0.729,-5.057 -4.306,-11.649 -2.496,-17.804 8.571,-23.129 6.422,-3.092 10.392,-7.392 13.902,-13.432 5.875,-10.104 11.849,-20.555 23.825,-25.068 5.157,0.123 9.584,1.312 10.689,7.327 0.252,5.493 -3.567,6.952 -7.861,8.594 -10.955,4.193 -13.813,10.188 -11.059,23.238 -2.695,-6.806 0.989,-9.151 6.414,-10.497 5.199,-1.285 10.152,-4.768 15.777,-1.743 8.192,4.406 17.91,5.869 24.669,13.088 3.104,3.317 8.063,2.73 11.835,4.825 1.102,0.79 1.493,1.831 1.205,3.149 -2.79,5.132 -7.551,6.35 -12.818,6.295 -12.125,-0.129 -23.639,3.325 -35.32,5.823 -6.477,3.301 -7.838,10.224 -10.95,15.813 -8.98,16.119 -14.514,19.119 -32.922,17.2 -2.213,-0.23 -4.958,-0.984 -6.345,1.346 -0.512,0.856 0.846,2.766 1.221,4.229 0.797,3.124 8.072,0.062 5.696,4.919 -2.264,4.632 -5.293,10.246 -11.396,10.759 -4.706,0.394 -7.79,3.329 -11.637,5.032 -3.351,3.248 -5.611,7.626 -10.079,9.757 -8.717,1.752 -15.697,6.592 -18.957,14.539 -5.608,13.659 -12.515,27.106 -12.335,42.506 0.266,22.628 -0.5,45.247 0.102,67.95 0,-11.962 -2.923,-24.338 3.68,-35.498 5.829,0.796 4.861,5.595 5.576,9.408 -3.035,18.046 2.616,35.844 1.577,53.838 -0.116,2.023 0.403,4.123 -0.529,5.632 2.338,-11.49 1.326,-23.181 -0.59,-35.163 -3.833,-23.965 1.868,-46.522 12.75,-67.926 7.051,-4.423 7.748,3.184 11.081,5.836 1.094,1.397 1.923,2.924 2.152,4.713 -0.049,1.768 -0.823,3.233 -1.923,4.555 -6.259,6.504 -1.803,11.277 2.626,16.055 1.889,6.524 -2.434,7.333 -7.139,7.793 -4.169,-0.5 -5.882,2.248 -7.181,5.521 -1.006,2.347 -1.512,4.827 -2.032,7.311 -0.678,3.008 -2.196,6.197 -0.837,9.061 2.087,4.401 3.047,0.249 4.308,-1 1.409,-2.385 3.026,-4.541 5.625,-5.728 3.562,-1.211 7.136,-2.379 10.975,-2.127 3.931,0.457 7.375,2.321 10.916,3.907 z"
       id="path9"
       inkscape:connector-curvature="0"
       style="fill:#727272;fill-rule:evenodd"
       sodipodi:nodetypes="ccccccccccccccccccscccccsccccccccccccccccccccccccccccccccccccccccccccccccccscccccccccccccccccccccccccccccccccccccccccccccccc" /><path
       clip-rule="evenodd"
       d="m 271.052,558.865 c 0.312,-6.712 3.574,-11.263 8.709,-15.815 20.072,-17.805 37.751,-38.14 54.609,-58.804 8.606,-10.55 16.106,-23.892 15.715,-39.48 -0.167,-6.533 1.4,-13.479 7.465,-17.829 5.896,-4.232 6.453,-9.865 6.052,-16.614 -0.987,-16.63 -5.922,-33.357 1.747,-49.908 2.203,-4.753 -3.082,-3.94 -5.947,-4.239 -0.705,-0.545 -0.93,-1.081 -0.68,-1.607 0.247,-0.518 0.491,-0.777 0.732,-0.777 7.548,-13.979 -5.298,-19.149 -11.707,-27.097 -7.884,-5.999 -5.307,-15.862 -8.606,-23.568 -0.53,-1.235 0.046,-3.25 1.759,-3.99 1.621,-0.699 3.044,0.147 4.234,1.183 4.035,3.509 5.456,8.542 7.633,13.154 6.002,12.744 15.369,21.926 29.135,25.682 10.66,2.909 15.103,-1.682 12.481,-12.314 -1.499,-6.081 -5.115,-13.44 0.653,-17.645 5.725,-4.174 11.55,2.302 17.139,4.659 2.894,1.219 5.56,2.999 7.236,5.858 0.423,1.113 0.604,2.262 0.531,3.451 -4.3,9.027 -11.654,15.681 -18.083,23.046 -3.708,4.245 -8.539,5.196 -13.962,4.325 -4.216,-0.676 -8.418,-1.915 -13.129,-0.152 13.866,4.706 26.213,12.389 40.197,17.324 19.427,6.857 41.64,5.586 58.56,19.742 2.74,2.294 6.511,2.609 9.92,3.57 12.561,3.543 20.424,11.266 21.584,24.783 -1.299,24.4 -2.249,48.844 -8.737,72.62 -3.95,22.899 -7.669,45.872 -18.616,67.474 -5.42,-4.314 -4.341,-8.337 -4.017,-12.222 1.38,-16.303 1.386,-16.349 -14.35,-21.72 -6.716,-2.291 -13.467,-4.473 -20.183,-6.768 -3.705,-1.269 -7.35195,-2.21723 -8.90895,-6.54123 11.78,-13.061 24.46595,-8.26577 37.45795,-2.46677 10.784,4.812 10.555,4.872 13.815,-6.641 6.447,-22.775 12.577,-45.525 12.833,-69.51 0.16,-14.646 -12.549,-29.11 -26.752,-28.748 -7.879,0.199 -10.892,7.211 -15.335,11.897 -4.702,4.954 -15.995,31.826 -17.764,41.214 4.656,-6.57 9.528,-10.365 15.413,-12.801 4.186,-1.734 8.76,-3.499 11.427,1.604 2.919,5.584 -1.072,9.521 -5.595,11.087 -12.957,4.488 -18.219,15.641 -24.185,26.264 -1.475,2.622 -3.783,5.863 -0.896,8.609 2.493,2.368 5.032,-0.713 7.583,-1.279 10.963,-2.45 22.213,-6.81 31.61,3.864 0.896,4.568 -1.039,7.345 -5.391,8.608 -11.531,1.815 -24.61277,-4.20728 -34.16677,6.91672 -0.016,18.695 0.25677,37.79128 -4.35523,56.12428 -4.918,2.338 -9.883,1.823 -14.866,0.235 -2.647,-3.246 -1.49,-6.821 -0.543,-10.162 1.887,-6.638 1.378,-12.882 -0.167,-19.692 -2.243,-9.878 3.282,-19.892 0.752,-30.265 -0.993,-4.081 -0.556,-8.552 -4.155,-14.388 -0.533,7.902 0.177,14.409 1.669,19.555 4.323,14.899 -0.879,28.733 -2.541,42.938 -0.547,4.656 -2.53,9.147 -8.946,9.046 -6.889,-0.108 -7.171,-4.781 -7.513,-9.699 2.812,-39.207 9.099,-78.32 2.562,-117.729 -0.777,-4.688 -1.391,-9.371 -4.029,-13.489 -3.546,-5.538 -3.117,-10.864 -0.169,-16.733 4.42,-8.81 4.094,-9.238 -1.002,-21.27 -3.242,26.925 -4.144,52.736 -6.647,78.392 -0.537,5.509 1.332,11.019 3.209,16.171 5.767,15.817 3.991,30.912 -3.59,45.567 -3.74,7.234 -3.001,15.431 -5.273,22.968 -1.923,6.37 -2.759,13.36 -10.039,16.444 -1.854,-0.058 -3.704,-0.115 -5.555,-0.174 -4.313,-5.127 -4.264,-11.54 -2.233,-16.816 6.38,-16.561 6.444,-34.005 7.644,-51.129 1.23,-17.574 5.102,-35.11 2.475,-52.892 -0.966,-6.542 5.552,-11.392 4.183,-18.049 -0.426,-16.418 3.513,-32.671 1.413,-49.163 2.368,17.114 -2.348,33.949 -1.481,51.008 -3.763,27.435 -12.413,54.028 -13.561,81.946 -0.662,16.231 -9.345,30.819 -10.537,47.181 -0.637,8.699 -8.692,7.385 -14.909,7.558 -1.026,-0.419 -2.054,-0.839 -3.082,-1.259 -3.18,-3.35 -0.004,-7.501 -1.77,-11.95 -2.94,4.73 -5.23,9.525 -10.011,12.006 -4.772,1.419 -9.505,0.924 -14.223,-0.312 4.54,-14.729 10.364,-28.669 26.25,-34.552 4.686,-1.734 5.439,-4.831 6.336,-8.816 2.12,-9.402 1.807,-19.406 6.512,-27.968 -13.771,23.735 -33.506,43.256 -49.922,65.324 -1.943,2.613 -4.858,3.961 -7.535,5.604 -4.519,1.46 -9.041,2.313 -13.57,0.041 z"
       id="path11"
       inkscape:connector-curvature="0"
       style="fill:#727272;fill-rule:evenodd"
       sodipodi:nodetypes="cccccccccccccccccccccccccccccccccccccccccccccccccccccccccccccccccccccccccccccccccccccccc" /><path
       clip-rule="evenodd"
       d="m 231.507,298.817 c -4.215,-0.971 -8.736,-1.212 -11.782,-4.957 0.822,-1.382 1.227,-2.874 0.931,-4.467 -0.683,-3.694 0.535,-8.732 -3.584,-10.374 -3.603,-1.433 -5.757,3.199 -8.712,4.877 -1.019,0.577 -1.999,1.221 -3.051,1.733 -1.58,-0.024 0.697,2.372 0.015,0.946 6.873,-1.651 12.011,0.102 14.369,7.317 -2.743,1.716 -6.209,2.505 -7.594,5.954 -4.044,5.175 -10.237,7.526 -15.168,11.531 -2.12,-0.275 -3.471,-2.04 -5.37,-2.74 -11.408,1.417 -11.69,10.315 -12.688,18.728 -5.968,1.213 -5.036,9.015 -10.666,10.894 -5.74,1.917 -2.079,-2.654 -3.111,-3.922 3.507,-0.11 6.536,-0.749 5.337,-5.424 -3.395,-13.219 1.638,-22.026 13.938,-27.283 2.574,-1.102 4.983,-3.251 4.943,-6.209 -0.154,-11.631 8.668,-15.713 16.723,-20.445 7.043,-4.138 12.719,-10.101 15.499,-17.314 4.563,-11.85 12.172,-20.9 21.108,-29.412 11.398,-10.858 19.416,-24.018 24.277,-38.99 0.785,-2.413 1.99,-4.21 3.71,-5.841 18.833,-17.84 36.084,-37.583 59.624,-49.782 17.416,-9.023 36.112,-8.065 54.114,-4.354 31.822,6.559 60.797,19.619 84.265,43.219 6.887,6.925 15.103,12.532 22.703,18.737 3.287,3.738 8.032,6.967 9.574,11.333 3.287,9.283 4.455,19.036 -6.484,25.102 -5.172,7.247 -12.465,12.131 -19.39,17.435 -2.563,-0.21 -3.751,-2.154 -5.044,-3.963 -9.004,-4.952 -17.973,-9.793 -28.648,-4.624 -2.121,1.028 -4.82,1.777 -6.908,1.031 -18.019,-6.448 -29.232,6.992 -42.307,14.521 -5.421,3.125 -10.314,7.206 -16.378,9.168 -5.018,1.624 -8.083,4.251 -7.584,10.195 0.535,6.409 -3.09,8.712 -8.927,6.784 -6.121,-2.025 -12.338,-4.668 -9.791,-13.085 1.083,-3.586 3.979,-6.532 4.951,-11.784 -2.851,7.55 -6.284,13.295 -8.924,19.417 -3.612,8.376 -8.488,9.712 -14.666,2.313 l 0.121,0.195 c -1.86,-4.809 5.456,-5.38 4.459,-10.124 -4.823,-3.74 -10.852,-3.793 -16.556,-3.473 -11.262,0.63 -18.441,-5.616 -24.589,-13.589 -5.776,-7.494 -2.602,-15.402 6.783,-17.75 5.505,-1.375 10.888,0.377 16.333,0.765 9.953,0.709 15.315,-3.594 16.612,-12.919 0.852,-7.966 6.049,-11.063 12.791,-12.476 -7.257,1.026 -11.478,5.831 -14.203,12.488 -5.721,8.776 -13.85,13.54 -24.106,10.887 -9.435,-2.444 -13.768,4.798 -20.171,8.216 -0.269,-6.001 -6.411,-4.419 -9.221,-7.136 -4.806,-5.428 -0.409,-11.177 -0.494,-16.763 -0.07,-4.536 2.77,-11.147 -2.41,-12.62 -5.992,-1.701 -8.273,5.729 -9.122,9.91 -2.591,12.78 -11.674,22.94 -13.53,35.85 -0.887,0.733 -1.9,0.993 -3.03,0.791 -3.725,-2.251 -1.417,-7.315 -4.621,-10.129 -5.481,5.133 -10.243,10.5 -12.017,17.891 -1.211,4.07 2.785,7.887 0.644,12.016 -4.779,7.21 -5.827,14.822 -2.737,22.993 1.085,2.866 2.057,5.874 -0.24,8.712 z"
       id="path13"
       inkscape:connector-curvature="0"
       style="fill:#727272;fill-rule:evenodd" /><path
       clip-rule="evenodd"
       d="m 87.75149,405.007 c 1.663,-5.892 6.006,-10.049 9.552,-14.717 3.769,-4.962 12.78351,-11.057 20.87951,-8.557 7.229,2.229 12.572,8.604 12.3,14.41 -0.834,17.859 8.531,33.103 10.528,50.037 0.401,3.398 2.269,8.464 -0.802,9.84 -2.976,1.333 -8.505,0.388 -11.179,-1.736 -5.818,-4.627 -11.839,-11.836 -9.116,-18.84 3.146,-8.081 0.723,-14.429 -1.16,-25.411 -2.477,4.238 -4.792,6.336 -4.643,8.24 1.014,12.857 -7.218,24.034 -6.057,37.032 0.739,8.274 7.06,11.957 11.284,17.313 3.901,4.94 8.853,8.995 8.614,16.108 -0.472,14.068 7.277,24.222 15.9,34.209 8.377,9.7 6.28,16.811 -5.514,22.266 -12.278,5.687 -25.893,8.438 -36.929,16.829 -7.055,2.955 -17.989603,3.254 -14.199603,-6.867 9.021,-24.104 13.264093,-48.854 9.942093,-74.507 -2.511,-19.378 -3.29,-38.99 -7.878,-58.123 -1.35,-5.641 -1.059,-11.675 -1.522,-17.526 z"
       id="path17"
       inkscape:connector-curvature="0"
       style="fill:#b6b6b6;fill-rule:evenodd"
       sodipodi:nodetypes="ccccccccccsccccccccc" /><path
       clip-rule="evenodd"
       d="m 102.741,170.044 c 19.929,14.668 32.95,34.001 39.238,57.922 0.495,1.878 1.227,3.847 2.375,5.377 14.567,19.423 15.325,42.274 16.323,65.076 1.823,3.723 -0.662,6.34 -2.328,9.173 -3.879,5.292 -6.416,11.271 -8.845,17.314 -1.458,1.841 -3.403,2.834 -5.67,3.27 -5.632,-0.784 -8.682,-6.453 -14.187,-7.506 -4.688,-6.26 -10.74,-12.744 3.286,-15.069 2.572,-0.426 2.165,-2.845 1.336,-4.744 -0.797,-1.825 -1.914,-3.708 -3.655,-4.535 -22.115,-10.488 -21.83,-32.38 -26.498,-51.753 -4.81,-15.096 -5.59,-31.654 -15.205,-44.994 -8.935,-12.401 -2.596,-27.059 -6.765,-40.099 -0.525,-1.645 -0.202,-4.101 2.127,-4.908 2.391,-0.83 3.408,1.431 4.743,2.641 4.646,4.201 9.161,8.544 13.725,12.835 z"
       id="path19"
       inkscape:connector-curvature="0"
       style="fill:#727272;fill-rule:evenodd" /><path
       clip-rule="evenodd"
       d="m 364.629,561.276 c 4.109,-4.116 5.779,-9.702 6.29,-14.919 1.752,-17.828 10.751,-33.646 13.358,-51.155 0.282,-1.912 0.754,-4.226 -0.005,-5.799 -14.365,-29.896 -1.961,-60.444 -2.25,-90.65 -0.082,-8.406 1.26,-16.823 2.031,-26.241 12.589,14.61 13.289,20.482 4.718,34.5 -1.576,2.583 -2.539,6.203 -1,7.802 14.529,15.097 10.12,34.877 10.38,51.944 0.438,28.507 -1.061,57.393 -6.191,85.751 -2.541,2.655 2.687,8.945 -4.424,9.466 -7.704,2.061 -15.302,0.549 -22.907,-0.699 z"
       id="path23"
       inkscape:connector-curvature="0"
       style="fill:#b6b6b6;fill-rule:evenodd" /><path
       clip-rule="evenodd"
       d="m 332.066,560.747 c 9.483,0.67 11.093,-4.858 13.338,-13.091 7.683,-28.164 7.475,-57.737 16.308,-85.622 1.397,-4.41 1.914,-9.281 1.854,-13.925 -0.117,-8.783 1.31,-16.953 6.602,-24.17 0.191,-1.67 1.012,-2.37 2.688,-1.76 -2.338,33.439 -4.755,66.871 -6.982,100.32 -0.87,13.136 -10.107,24.76 -6.799,38.603 -9.014,0.768 -18.031,1.701 -27.009,-0.355 z"
       id="path27"
       inkscape:connector-curvature="0"
       style="fill:#b6b6b6;fill-rule:evenodd" /><path
       clip-rule="evenodd"
       d="m 284.622,558.825 c 19.662,-26.809 42.547,-51.09 61.693,-78.71 -6.587,13.712 -6.254,28.449 -8.318,42.715 -0.454,3.133 -2.003,5.897 -5.053,5.237 -12.079,-2.61 -15.8,7.739 -19.67,14.437 -3.265,5.65 -6.572,11.315 -10.294,16.729 -6.118,-0.135 -12.24,-0.272 -18.358,-0.408 z"
       id="path29"
       inkscape:connector-curvature="0"
       style="fill:#b6b6b6;fill-rule:evenodd" /><path
       clip-rule="evenodd"
       d="m 387.536,561.975 c 3.962,-1.992 1.188,-7.134 4.424,-9.466 0.454,3.229 -1.009,7.455 4.717,7.672 4.18,0.153 5.34,-2.046 5.917,-5.603 1.953,-12.018 5.86,-24.07 5.432,-35.981 -0.228,-6.36 -2.377,-13.594 -3.883,-20.33 -1.379,-6.161 -1.432,-10.301 4.164,-13.651 8.362,10.551 6.784,23.353 5.634,35.901 -0.569,6.145 -2.1,11.601 0.971,18.091 3.963,8.391 -3.187,16.507 -3.855,25.021 -7.844,-0.556 -15.682,-1.105 -23.521,-1.654 z"
       id="path31"
       inkscape:connector-curvature="0"
       style="fill:#b6b6b6;fill-rule:evenodd" /><path
       clip-rule="evenodd"
       d="m 75.322,304.227 c 4.052,-2.011 -0.447,-11 7.271,-9.576 10.667,1.964 11.173,11.301 13.384,19.536 -8.467,3.623 -11.468,-7.898 -18.866,-6.067 -1.386,-0.937 -2.355,-2.063 -1.789,-3.893 z"
       id="path35"
       inkscape:connector-curvature="0"
       style="fill:#b6b6b6;fill-rule:evenodd" /><path
       clip-rule="evenodd"
       d="m 84.508,324.661 c 2.848,-6.132 7.547,-4.812 11.657,-2.21 4.455,2.82 7.163,7.405 7.125,12.813 -0.031,4.35 -3.162,2.656 -5.92,2.714 -4.367,0.093 -6.267,-6.013 -11.068,-3.8 -3.051,-2.713 -2.188,-6.16 -1.794,-9.517 z"
       id="path37"
       inkscape:connector-curvature="0"
       style="fill:#b6b6b6;fill-rule:evenodd" /><path
       clip-rule="evenodd"
       d="m 317.204,559.544 c 3.981,-5.722 5.288,-13.29 12.786,-18.808 1.497,7.327 1.099,13.042 -1.01,18.749 -3.922,0.023 -7.849,0.039 -11.776,0.059 z"
       id="path39"
       inkscape:connector-curvature="0"
       style="fill:#b6b6b6;fill-rule:evenodd" /><path
       clip-rule="evenodd"
       d="m 79.044,227.386 c -4.318,5.448 1.228,13.436 -4.599,18.716 -7.147,-12.007 -6.409,-17.948 2.596,-22.397 0.67,1.232 1.337,2.457 2.003,3.681 z"
       id="path41"
       inkscape:connector-curvature="0"
       style="fill:#b6b6b6;fill-rule:evenodd" /><path
       clip-rule="evenodd"
       d="m 155.739,306.276 c 1.27,-2.854 5.02,-4.15 4.938,-7.857 2.935,11.707 3.76,23.686 4.605,35.662 -0.744,0.263 -1.511,0.397 -2.299,0.403 -4.008,-0.914 -5.294,-4.148 -6.433,-7.511 -0.839,-6.867 2.514,-13.91 -0.811,-20.697 z"
       id="path43"
       inkscape:connector-curvature="0"
       style="fill:#727272;fill-rule:evenodd" /><path
       clip-rule="evenodd"
       d="m 330.811,275.083 c 9.511,1.897 14.9,-2.797 19.118,-16.84 0.659,-2.196 0.246,-4.897 1.365,-6.729 1.413,-2.313 4.532,-3.981 6.976,-2.661 2.22,1.202 1.436,4.361 0.271,6.422 -1.342,2.373 -3.18,4.474 -4.874,6.637 -2.154,2.744 -4.771,4.885 -1.755,9.143 2.955,4.174 7.098,5.126 11.198,5.313 4.283,0.195 3.244,-3.487 2.405,-6.068 -1.29,-3.986 -2.562,-7.704 3.168,-9.302 16.688,-4.655 28.611,-17.604 43.625,-25.21 4.861,-2.466 8.655,-5.951 14.795,-1.429 2.82,2.075 9.942,2.261 12.427,0.145 11.624,-9.877 21.422,2.299 32.074,1.672 0.316,-0.019 0.757,2.061 1.14,3.16 -0.766,10.474 -9.683,16.304 -14.071,24.718 -5.266,2.113 -8.907,-1.149 -12.73,-3.813 -5.882,-8.311 -12.352,-15.651 -23.364,-13.896 8.985,1.021 19.494,1.431 19.877,15.092 -9.499,4.914 -18.323,1.765 -27.068,-2.297 10.904,18.172 10.904,18.172 24.63,11.501 11.207,0.942 12.581,2.307 8.618,11.241 -3.82,8.612 -5.165,17.885 -8.417,26.643 -2.067,5.574 -6.285,8.795 -10.329,6.42 -7.299,-4.28 -7.928,2.725 -11.407,4.848 -7.386,-3.461 -14.771,-6.927 -22.871,-10.724 -1.789,7.151 -0.29,13.079 1.941,18.82 3.748,9.643 -1.343,16.889 -11.624,15.547 -17.142,-2.235 -27.438,-13.911 -35.473,-27.744 -3.078,-5.298 -4.531,-11.545 -9.186,-16.343 -0.493,9.992 3.738,18.49 6.479,27.347 -1.659,3.929 -3.811,7.736 -4.825,11.825 -0.924,3.717 -1.653,7.288 -6.112,7.336 -3.978,0.047 -6.585,-2.901 -7.683,-6.381 -1.039,-3.3 -1.305,-6.686 1.897,-9.724 12.026,-11.412 11.873,-11.46 1.427,-23.883 -2.275,-2.708 -3.86,-5.932 -3.895,-9.693 -0.033,-3.873 4.115,-9.656 -1.606,-11.072 -5.835,-1.441 -15.729,-2.208 -18.071,0.974 -6.463,8.792 -12.689,5.485 -19.832,3.396 -1.833,-0.535 -3.924,-0.184 -5.896,-0.241 8.35,-6.08 17.792,-7.931 27.86,-6.931 7.826,0.778 14.529,-1.16 19.798,-7.219 z"
       id="path45"
       inkscape:connector-curvature="0"
       style="fill:#b6b6b6;fill-rule:evenodd" /><path
       clip-rule="evenodd"
       d="m 226.584,469.47 c -4.088,2.11 -6.544,-1.263 -9.536,-2.838 -0.678,-4.104 4.525,-5.131 4.702,-9.878 -8.473,0.747 -12.447,6.626 -16.321,12.642 -1.427,1.598 -2.853,3.196 -4.277,4.794 -5.479,-0.563 -6.445,-4.896 -7.587,-9.083 -0.035,-2.671 -0.566,-5.471 1.89,-7.521 5.775,1.114 4.242,-5.761 7.771,-7.106 2.958,-0.617 8.065,1.595 6.515,-4.95 -1.135,-6.214 -2.75,-12.377 -1.896,-18.79 0.787,-0.919 1.574,-1.838 2.359,-2.759 3.288,-1.952 6.802,-0.918 10.262,-0.798 1.038,0.386 1.74,1.104 2.177,2.102 3.508,9.858 7.888,1.499 11.052,0.021 5.08,-2.379 2.929,-5.283 -0.959,-7.298 -2.243,-2.058 -3.412,-4.442 -2.274,-7.518 2.949,-3.806 8.41,-3.789 11.435,-7.496 0.996,-1.22 2.031,-2.572 1.026,-4.096 -0.988,-1.498 -2.645,-1.181 -4.118,-0.657 -4.835,1.732 -7.579,6.511 -12.265,8.482 -1.706,0.423 -3.319,0.243 -4.796,-0.764 -1.895,-4.4 1.9,-8.148 1.336,-12.578 -1.672,2.268 -0.687,5.117 -1.88,7.363 -1.543,2.347 -1.547,5.492 -3.831,7.459 -3.822,0.402 -4.339,-2.513 -5.007,-4.606 -1.065,5.949 -0.381,12.814 -4.706,18.476 -2.257,-3.168 -4.515,-6.337 -6.773,-9.505 -4.074,-7.057 1.616,-11.621 4.363,-16.91 1.744,-3.359 5.583,-6.057 3.842,-10.492 -0.823,-2.097 -3.228,-2.005 -5.173,-1.677 -4.763,0.809 -7.896,3.834 -8.983,8.33 -3.209,13.268 -9.521,25.902 -7.877,40.19 0.719,6.244 -0.972,12.513 -0.83,18.817 0.069,3.084 0.087,6.545 -4.274,7.176 -0.786,-3.283 0.662,-7.077 -2.285,-9.856 -9.46,-18.48 -2.241,-60.125 12.69,-73.719 4.719,-4.3 10.434,-5.032 16.407,-5.39 3.471,-0.207 8.154,0.21 9.328,-3.541 1.569,-5.022 -4.624,-3.919 -6.743,-6.274 -0.825,-0.916 -1.336,-1.861 -1.42,-3.066 -2.432,-6.816 3.183,-6.355 6.891,-7.624 14.182,9.918 13.37,8.888 26.378,-1.359 10.653,-8.392 21.449,-16.672 32.158,-25.042 3.08,-2.409 7.346,-3.939 10.73,-0.277 3.19,3.454 0.626,7.118 -1.585,9.505 -9.295,10.032 -10.729,24.292 -19.326,34.745 -4.554,5.54 -1.468,12.028 0.162,18.14 1.584,5.934 6.967,10.623 5.939,17.544 -5.54,-1.51 -3.257,-13.163 -11.52,-9.4 -7.541,3.432 -1.184,8.458 0.335,12.737 0.829,2.386 -0.374,2.88 -2.415,2.589 -6.091,-5.352 -7.232,0.093 -8.33,4.13 -5.446,20.065 -15.449,38.311 -22.761,57.626 z"
       id="path47"
       inkscape:connector-curvature="0"
       style="fill:#727272;fill-rule:evenodd" /><path
       clip-rule="evenodd"
       d="m 261.977,542.738 c 20.277,-15.125 22.735,-37.104 23.457,-59.952 0.192,-6.056 -2.958,-10.509 -5.17,-15.427 -1.738,-3.868 -2.019,-7.228 2.114,-8.888 4.277,-1.718 7.711,1.965 7.682,5.088 -0.18,19.5 6.923,39.056 -0.154,58.496 -4.384,12.046 -14.095,18.499 -25.041,23.616 -2.428,0.468 -3.328,-0.576 -2.888,-2.933 z"
       id="path49"
       inkscape:connector-curvature="0"
       style="fill:#727272;fill-rule:evenodd" /><path
       clip-rule="evenodd"
       d="m 359.454,353.791 c -0.02,0.793 -0.035,1.587 -0.053,2.381 -5.462,9.811 -12.521,17.772 -23.935,20.688 -4.313,1.1 -9.766,2.859 -8.246,7.771 1.099,3.548 6.61,2.311 10.275,0.6 1.896,-0.884 3.955,-1.416 4.554,1.322 0.496,2.27 -1.22,3.905 -3.168,4.234 -7.05,1.196 -16.392,1.715 -18.862,-4.629 -2.6,-6.673 3.129,-13.795 11.603,-14.153 13.189,-0.555 18.531,-12.232 27.832,-18.214 z"
       id="path51"
       inkscape:connector-curvature="0"
       style="fill:#727272;fill-rule:evenodd" /><path
       clip-rule="evenodd"
       d="m 257.676,407.712 c 0.806,-0.863 1.609,-1.726 2.415,-2.589 9.321,6.793 14.656,17.094 22.035,25.613 2.896,-3.959 -2.3,-7.625 0.567,-12.128 2.046,4.769 3.902,8.97 5.649,13.211 1.119,2.712 3.897,5.825 -0.418,7.987 -3.804,1.906 -5.741,-1.602 -7.585,-3.838 -7.678,-9.316 -15.128,-18.817 -22.663,-28.256 z"
       id="path53"
       inkscape:connector-curvature="0"
       style="fill:#727272;fill-rule:evenodd" /><path
       clip-rule="evenodd"
       d="m 318.479,400.256 c -5.166,4.505 -7.772,0.363 -9.634,-1.823 -7.827,-9.192 -17.829,-12.204 -29.404,-12.117 -3.122,0.021 -8.393,0.91 -7.253,-4.689 0.817,-4.004 5.238,-2.621 8.086,-1.975 10.994,2.484 22.82,3.655 29.266,14.928 1.954,3.424 6.293,2.434 8.939,5.676 z"
       id="path55"
       inkscape:connector-curvature="0"
       style="fill:#727272;fill-rule:evenodd" /><path
       clip-rule="evenodd"
       d="m 304.898,480.9 c -0.974,11.588 -1.893,22.482 -2.81,33.378 -4.953,-11.315 -7.92,-22.494 2.81,-33.378 z"
       id="path57"
       inkscape:connector-curvature="0"
       style="fill:#727272;fill-rule:evenodd" /><path
       clip-rule="evenodd"
       d="m 311.968,344.599 c 2.523,6.073 2.209,19.72 -0.852,36.972 -5.112,-18.626 -4.952,-25.534 0.852,-36.972 z"
       id="path59"
       inkscape:connector-curvature="0"
       style="fill:#727272;fill-rule:evenodd" /><path
       clip-rule="evenodd"
       d="m 216.986,507.605 c 2.081,1.984 7.18,0.574 6.699,5.008 -0.322,2.973 -4.005,3.636 -6.618,3.587 -2.641,-0.047 -6.107,-0.983 -6.148,-4.183 -0.042,-3.162 3.291,-3.773 6.067,-4.412 z"
       id="path61"
       inkscape:connector-curvature="0"
       style="fill:#727272;fill-rule:evenodd" /><path
       clip-rule="evenodd"
       d="m 261.977,542.738 c 0.964,0.976 1.926,1.956 2.887,2.931 -5.163,6.515 -11.919,7.756 -23.181,5.287 9.905,-0.885 15.304,-4.171 20.294,-8.218 z"
       id="path63"
       inkscape:connector-curvature="0"
       style="fill:#727272;fill-rule:evenodd" /><path
       clip-rule="evenodd"
       d="m 288.285,237.303 c 1.671,-10.518 9.936,-13.19 17.818,-11.174 11.63,2.971 18.485,-2.113 25.054,-9.877 2.653,-1.549 3.19,0.74 4.138,2.284 0.601,1.944 7.418,0.164 2.906,5.319 -6.533,7.467 -13.32,12.776 -24.361,10.137 -6.817,-1.63 -16.165,-5.35 -19.803,3.779 -3.474,8.722 6.452,12.192 11.154,17.45 2.718,3.038 6.517,4.064 10.745,3.583 3.102,-0.352 6.378,-0.701 9.382,-0.094 5.574,1.129 14.096,0.06 15.912,4.627 2.565,6.466 -7.523,7.104 -10.298,11.942 -7.645,0.657 -12.914,-2.682 -19.4,-7.089 -8.382,-5.697 -18.117,-14.866 -30.712,-7.999 -2.479,1.351 -6.958,-1.484 -7.764,3.135 -0.917,5.267 5.809,3.529 7.928,6.749 -12.148,3.73 -14.959,2.091 -13.971,-8.002 1.052,-10.757 3.729,-20.451 17.638,-20.146 3.155,0.066 3.868,-1.947 3.634,-4.624 z"
       id="path65"
       inkscape:connector-curvature="0"
       style="fill:#b6b6b6;fill-rule:evenodd" /><path
       clip-rule="evenodd"
       d="m 231.507,298.817 c -4.206,-11.518 -9.346,-23.092 1.997,-33.686 7.147,-5.301 12.977,-11.934 18.82,-18.554 1.878,-20.164 12.21,-36.691 21.662,-53.641 10.421,6.786 8.857,15.553 6.953,24.521 -0.888,4.181 -1.266,8.468 -1.875,12.709 -9.925,10.155 -20.245,20.001 -24.833,34.091 -0.397,1.225 -2.139,2.219 -3.47,2.901 -21.327,10.896 -21.334,10.884 -8.541,31.659 -3.884,0 -7.298,0 -10.713,0 z"
       id="path67"
       inkscape:connector-curvature="0"
       style="fill:#b6b6b6;fill-rule:evenodd" /><path
       clip-rule="evenodd"
       d="m 181.95,458.001 c 2.76,-3.896 1.964,-8.434 1.504,-12.534 -2.223,-19.791 4.395,-38.291 8.049,-57.187 1.438,-7.447 13.7,-12.963 20.194,-8.885 6.418,4.029 2.249,10.086 -0.87,13.723 -4.994,5.833 -8.307,12.105 -9.944,19.449 -9.073,25.24 -19.274,50.248 -10.524,77.999 3.063,9.718 -1.612,19.146 -2.622,31.187 -7.594,-22.377 -5.133,-43.212 -5.787,-63.752 z"
       id="path69"
       inkscape:connector-curvature="0"
       style="fill:#b6b6b6;fill-rule:evenodd" /><path
       clip-rule="evenodd"
       d="m 209.927,356.154 c 4.798,3.589 11.708,1.173 16.322,5.967 -2.107,5.086 -4.769,9.125 -11.402,9.812 -22.476,2.324 -35.423,16.842 -35.661,39.808 -0.126,12.133 0.301,24.271 0.479,36.403 -1.174,12.539 -2.349,25.076 -3.522,37.611 -5.107,-23.269 -3.806,-46.9 -3.918,-70.417 -0.085,-17.972 6.841,-33.966 15.638,-49.267 4.998,-8.693 12.593,-11.321 22.064,-9.917 z"
       id="path71"
       inkscape:connector-curvature="0"
       style="fill:#b6b6b6;fill-rule:evenodd" /><path
       clip-rule="evenodd"
       d="m 145.611,379.31 c 12.372,25.017 12.995,52.059 11.758,79.461 -1.366,-10.004 -2.822,-19.995 -4.047,-30.018 -0.428,-3.488 0.378,-7.524 -2.237,-10.14 -10.554,-10.559 -9.314,-26.37 -17.322,-38.023 -3.171,-4.613 0.074,-9.11 0.819,-13.604 0.326,-1.974 1.69,-3.786 4.075,-3.255 3.019,0.673 2.643,3.424 2.896,5.696 3.022,2.61 3.869,6.112 4.058,9.883 z"
       id="path73"
       inkscape:connector-curvature="0"
       style="fill:#b6b6b6;fill-rule:evenodd" /><path
       clip-rule="evenodd"
       d="m 157.866,327.332 c 1.705,2.386 3.411,4.769 5.117,7.152 -0.163,3.923 -0.531,7.85 -0.44,11.767 0.166,7.037 -4.088,13.503 -8.915,15.214 -5.711,2.025 -9.815,-4.864 -12.898,-10.006 -6.312,-3.832 -4.462,-9.903 -4.312,-15.534 0.022,-0.763 -0.559,-1.492 -1.214,-1.848 -0.538,-0.292 -0.876,0.281 -0.938,1.331 -0.046,0.769 -0.248,1.523 -0.409,2.314 -0.843,2.779 -1.846,5.418 -4.671,6.795 -2.74,-5.473 -1.811,-11.401 -2.117,-17.175 -0.324,-3.722 3.583,-4.738 4.781,-7.489 6.204,-1.77 7.817,4.597 11.847,6.682 7.367,1.465 2.94,8.266 5.607,12.573 4.683,-2.242 4.627,-7.517 7.3,-10.773 0.415,-0.339 0.838,-0.67 1.262,-1.003 z"
       id="path75"
       inkscape:connector-curvature="0"
       style="fill:#b6b6b6;fill-rule:evenodd" /><path
       clip-rule="evenodd"
       d="m 167.526,502.531 c -4.169,-27.72 -9.207,-55.451 -0.486,-82.966 1.054,0.006 2.105,0.011 3.159,0.017 0,21.977 0,43.952 0,65.928 0.06,5.825 3.756,12.216 -2.673,17.021 z"
       id="path77"
       inkscape:connector-curvature="0"
       style="fill:#b6b6b6;fill-rule:evenodd" /><path
       clip-rule="evenodd"
       d="m 195.021,346.524 c -8.643,14.467 -20.599,27.242 -25.881,45.465 -5.92,-13.973 4.59,-24.428 3.344,-36.259 8.815,-0.435 12.466,-14.356 22.537,-9.206 z"
       id="path79"
       inkscape:connector-curvature="0"
       style="fill:#b6b6b6;fill-rule:evenodd" /><path
       clip-rule="evenodd"
       d="M 154.625,526.31 C 140.4,501.397 132.04,473.384 113.142,451.081 c -0.805,-0.947 0.305,-3.026 2.785,-3.785 4.96,14.394 20.942,22.1 24.621,36.896 3.609,14.514 11.109,27.446 14.077,42.118 z"
       id="path81"
       inkscape:connector-curvature="0"
       style="fill:#b6b6b6;fill-rule:evenodd" /><path
       clip-rule="evenodd"
       d="m 195.802,310.371 c 4.774,-4.529 9.24,-9.534 16.295,-10.525 1.635,2.482 5.325,3.421 5.413,7.1 -13.677,3.353 -22.985,11.224 -19.984,17.358 2.984,6.102 8.125,4.087 13.078,1.055 -4.24,9.274 -13.075,12.09 -19.353,6.683 -0.745,-2.995 -0.908,-6.041 -0.866,-9.117 0.721,-4.654 -1.59,-10.627 5.417,-12.554 z"
       id="path83"
       inkscape:connector-curvature="0"
       style="fill:#b6b6b6;fill-rule:evenodd" /><path
       clip-rule="evenodd"
       d="m 153.5,481 c -3.928,-17.102 -8.042,-34.166 -11.589,-51.35 -0.564,-2.731 -4.141,-7.687 0.736,-8.816 4.912,-1.138 5.648,4.032 6.228,8.015 2.306,15.803 4.661,31.601 6.999,47.4 0.611,2.287 2.203,5.059 -2.374,4.751 z"
       id="path85"
       inkscape:connector-curvature="0"
       style="fill:#b6b6b6;fill-rule:evenodd" /><path
       clip-rule="evenodd"
       d="m 145.611,379.31 c -2.718,-2.734 -4.201,-5.973 -4.058,-9.88 0.741,-0.205 1.545,-0.706 2.216,-0.567 8.505,1.775 15.069,0.29 17.345,-9.493 0.238,-1.025 2.452,-2.412 3.472,-2.212 1.09,0.214 2.266,1.977 2.686,3.293 1.789,5.602 -5.556,21 -10.67,23.242 -5.299,2.323 -5.228,-8.25 -10.991,-4.383 z"
       id="path87"
       inkscape:connector-curvature="0"
       style="fill:#b6b6b6;fill-rule:evenodd" /><path
       clip-rule="evenodd"
       d="m 262.515,306.302 c -3.009,5.161 -6.908,8.003 -13.463,7.149 -5.01,-0.653 -10.288,-0.407 -15.301,0.38 -7.86,1.23 -12.966,5.004 -11.292,14.367 2.064,11.532 -0.725,13.909 -13.85,11.788 5.21,-6.503 10.731,-11.896 11.189,-21.237 0.315,-6.441 7.395,-10.572 15.345,-8.818 9.244,2.038 17.979,1.946 24.464,-6.503 2.369,-0.46 3.556,0.279 2.908,2.874 z"
       id="path89"
       inkscape:connector-curvature="0"
       style="fill:#b6b6b6;fill-rule:evenodd" /><path
       clip-rule="evenodd"
       d="m 195.155,490.396 c 4.62,17.577 3.289,35.539 0.107,53.526 -7.72,-17.57 2.007,-35.508 -0.107,-53.526 z"
       id="path91"
       inkscape:connector-curvature="0"
       style="fill:#b6b6b6;fill-rule:evenodd" /><path
       clip-rule="evenodd"
       d="m 205.429,469.396 c -0.146,-8.688 11.018,-18.776 18.532,-16.46 3.083,0.949 6.115,2.875 2.074,6.428 -2.892,2.542 -5.983,4.855 -8.987,7.269 -3.873,0.921 -7.745,1.843 -11.619,2.763 z"
       id="path93"
       inkscape:connector-curvature="0"
       style="fill:#b6b6b6;fill-rule:evenodd" /><path
       clip-rule="evenodd"
       d="m 89.024,274.861 c 0.007,3.413 0.013,6.827 0.019,10.24 -5.131,3.518 -9.855,11.529 -16.176,1.344 -1.969,-3.174 -3.167,-6.225 -0.438,-9.556 2.577,-3.148 5.324,-2.413 8.102,-0.365 3.457,2.546 6.61,3.747 8.493,-1.663 z"
       id="path95"
       inkscape:connector-curvature="0"
       style="fill:#b6b6b6;fill-rule:evenodd" /><path
       clip-rule="evenodd"
       d="m 218.996,424.249 c -3.04,3.438 -5.88,0.467 -8.792,-0.269 -0.849,-0.637 -1.697,-1.273 -2.548,-1.908 -0.229,-5.022 -1.606,-10.066 1.006,-14.958 3.655,-6.848 6.212,-5.138 8.406,0.884 5.717,4.817 7.175,10.135 1.928,16.251 z"
       id="path97"
       inkscape:connector-curvature="0"
       style="fill:#b6b6b6;fill-rule:evenodd" /><path
       clip-rule="evenodd"
       d="m 178.872,327.367 c -6.082,-10.37 -0.366,-19.378 13.856,-21.841 0.361,3.419 -1.879,6.029 -2.777,9.062 -2.21,3.844 -2.139,7.918 -1.965,12.247 0.19,4.736 -1.517,7.976 -6.527,3.16 -0.863,-0.876 -1.725,-1.752 -2.587,-2.628 z"
       id="path99"
       inkscape:connector-curvature="0"
       style="fill:#b6b6b6;fill-rule:evenodd" /><path
       clip-rule="evenodd"
       d="m 83.563,248.792 c 1.52,3.161 2.713,5.53 3.802,7.943 1.432,3.173 6.41,5.695 2.021,9.979 -1.073,1.048 -2.935,2.739 -3.696,2.413 -4.113,-1.761 -4.143,-6.303 -5.258,-9.78 -0.961,-2.998 -2.005,-6.901 3.131,-10.555 z"
       id="path101"
       inkscape:connector-curvature="0"
       style="fill:#b6b6b6;fill-rule:evenodd" /><path
       clip-rule="evenodd"
       d="m 181.458,329.995 c 4.836,2.132 5.496,-0.413 3.985,-4.025 -2.244,-5.369 -0.643,-9.495 3.117,-13.281 4.584,3.035 0.429,9.054 4.221,12.36 0.203,2.487 0.461,4.985 -1.529,6.992 -2.949,2.148 -5.171,6.528 -9.788,4.003 -3.051,-1.669 -0.507,-4.01 -0.006,-6.049 z"
       id="path103"
       inkscape:connector-curvature="0"
       style="fill:#727272;fill-rule:evenodd" /><path
       clip-rule="evenodd"
       d="m 119.808,336.496 c 3.662,8.032 2.273,13.288 -2.273,17.823 -1.657,1.653 -4.248,1.172 -4.988,-0.778 -2.699,-7.092 2.204,-11.277 7.261,-17.045 z"
       id="path105"
       inkscape:connector-curvature="0"
       style="fill:#b6b6b6;fill-rule:evenodd" /><path
       clip-rule="evenodd"
       d="m 132.124,336.356 c 0.336,-2.576 -1.455,-5.355 0.663,-7.697 13.9,3.708 1.223,16.59 7.942,22.797 -2.105,1.487 -2.917,4.892 -6.407,4.327 -2.371,-6.29 -1.809,-12.912 -2.198,-19.427 z"
       id="path107"
       inkscape:connector-curvature="0"
       style="fill:#727272;fill-rule:evenodd" /><path
       clip-rule="evenodd"
       d="m 207.845,426.739 c 3.493,5.973 5.381,12.11 1.896,18.79 -6.782,-5.642 -12.909,-11.351 -1.896,-18.79 z"
       id="path109"
       inkscape:connector-curvature="0"
       style="fill:#b6b6b6;fill-rule:evenodd" /><path
       clip-rule="evenodd"
       d="m 262.515,306.302 c -0.972,-0.957 -1.939,-1.915 -2.909,-2.873 3.502,-5.01 3.531,-9.879 0.083,-15.082 -3.79,-5.719 -2.713,-11.508 1.146,-17.107 -1.737,11.857 8.269,22.986 1.68,35.062 z"
       id="path111"
       inkscape:connector-curvature="0"
       style="fill:#b6b6b6;fill-rule:evenodd" /><path
       clip-rule="evenodd"
       d="m 167.526,502.531 c 4.566,-5.097 0.93,-11.48 2.671,-17.021 4.26,12.598 0.626,25.537 0.204,38.589 -0.96,-7.193 -1.918,-14.38 -2.875,-21.568 z"
       id="path113"
       inkscape:connector-curvature="0"
       style="fill:#727272;fill-rule:evenodd" /><path
       clip-rule="evenodd"
       d="m 193.564,465.106 c 2.529,3.03 5.06,6.057 7.587,9.083 -1.512,2.911 -0.826,9.821 -5.811,7.159 -6.471,-3.457 -5.511,-10.293 -1.776,-16.242 z"
       id="path115"
       inkscape:connector-curvature="0"
       style="fill:#b6b6b6;fill-rule:evenodd" /><path
       clip-rule="evenodd"
       d="m 68.312,257.205 c 4.36,0.755 7.497,2.807 8.648,7.096 0.82,3.061 -0.867,4.397 -3.682,4.482 -4.646,0.143 -7.409,-2.843 -8.589,-6.683 -0.589,-1.914 0.624,-4.729 3.623,-4.895 z"
       id="path117"
       inkscape:connector-curvature="0"
       style="fill:#b6b6b6;fill-rule:evenodd" /><path
       clip-rule="evenodd"
       d="m 61.677,235.642 c 5.157,5.167 7.313,11.326 10.581,17.044 -9.746,-0.938 -11.854,-4.21 -10.581,-17.044 z"
       id="path119"
       inkscape:connector-curvature="0"
       style="fill:#b6b6b6;fill-rule:evenodd" /><path
       clip-rule="evenodd"
       d="m 132.124,336.356 c 2.388,6.289 6.336,12.4 2.198,19.427 -8.483,-0.672 -3.58,-7.442 -5.134,-11.269 0.978,-2.717 1.956,-5.437 2.936,-8.158 z"
       id="path121"
       inkscape:connector-curvature="0"
       style="fill:#727272;fill-rule:evenodd" /><path
       clip-rule="evenodd"
       d="m 153.5,481 c 0.792,-1.582 1.582,-3.165 2.373,-4.75 3.145,9.272 4.843,18.74 2.867,28.805 -1.746,-8.017 -3.493,-16.034 -5.24,-24.055 z"
       id="path123"
       inkscape:connector-curvature="0"
       style="fill:#727272;fill-rule:evenodd" /><path
       clip-rule="evenodd"
       d="m 203.225,450.479 c -1.252,3.751 2.606,8.974 -2.591,11.383 -3.27,1.518 -4.768,-1.215 -5.178,-4.276 2.51,-2.455 -0.695,-11.16 7.769,-7.107 z"
       id="path125"
       inkscape:connector-curvature="0"
       style="fill:#b6b6b6;fill-rule:evenodd" /><path
       clip-rule="evenodd"
       d="m 106.306,354.046 c -5.739,-3.216 -11.008,-3.993 -9.729,-11.008 5.661,0.866 8.347,3.745 9.729,11.008 z"
       id="path127"
       inkscape:connector-curvature="0"
       style="fill:#b6b6b6;fill-rule:evenodd" /><path
       clip-rule="evenodd"
       d="m 430.343,507.315 c 8.035,-13.687 21.366,-8.245 32.95,-9.112 2.858,1.848 5.929,-0.193 9.306,0.923 -0.417,-3.588 -2.711,-5.448 -4.4,-7.637 -10.474,-5.522 -20.892,-5.874 -31.24,0.327 -3.374,2.023 -7.313,5.045 -10.618,1.539 -2.844,-3.016 -1.545,-8.24 0.443,-11.109 8.021,-11.56 11.708,-27.331 28.979,-30.416 3.284,-0.589 6.096,-4.053 3.56,-8.365 -2.803,-4.778 -5.177,-0.281 -7.761,0.432 -8.945,2.471 -13.151,10.267 -19.172,18.57 -2.359,-9.649 -0.809,-17.774 2.383,-24.011 7.107,-13.874 13.465,-28.575 25.636,-39.232 3.783,-3.31 20.933,0.048 25.355,4.805 8.544,9.18 12.746,18.531 11.688,32.547 -1.927,25.515 -10.163,49.237 -15.595,73.741 -0.991,4.47 -3.351,5.967 -7.415,2.802 -0.918,-0.717 -2.115,-1.055 -3.131,-1.662 -12.997,-7.771 -26.332,-12.072 -40.893,-4.058 0.004,0.003 -0.075,-0.084 -0.075,-0.084 z"
       id="path129"
       inkscape:connector-curvature="0"
       style="fill:#b6b6b6;fill-rule:evenodd" /><path
       clip-rule="evenodd"
       d="m 417.576,481.117 c -2.922,-8.347 -10.583,-15.937 -3.057,-26.011 3.954,-5.293 1.635,-12.312 1.733,-18.522 0.26,-16.57 0.08,-33.144 0.017,-49.714 -0.017,-4.199 -0.079,-7.812 6.041,-7.45 5.888,0.348 6.372,3.903 5.598,8.067 -1.747,9.406 -0.954,18.915 -5.424,28.384 -2.505,5.299 -7.589,16.062 4.571,21.691 5.237,2.428 2.247,10.955 0.061,13.417 -7.896,8.875 -7.032,19.57 -9.54,30.138 z"
       id="path131"
       inkscape:connector-curvature="0"
       style="fill:#b6b6b6;fill-rule:evenodd" /><path
       clip-rule="evenodd"
       d="m 405.556,453.849 c -6.737,-26.53 -3.248,-53.555 -7.966,-82.336 7.84,9.681 14.609,15.505 12.077,28.577 -2.536,13.071 0.755,27.273 1.506,40.975 0.279,5.089 0.793,10.26 -5.617,12.784 z"
       id="path133"
       inkscape:connector-curvature="0"
       style="fill:#b6b6b6;fill-rule:evenodd" /><path
       clip-rule="evenodd"
       d="m 431.271,424.064 c -2,-13.002 1.838,-23.301 1.633,-33.838 -0.056,-2.599 -1.717,-7.03 3.386,-7.254 3.921,-0.173 5.243,2.706 5.681,6.21 0.121,0.965 1.018,1.833 1.879,3.287 1.832,-1.404 3.455,-2.451 4.834,-3.753 2.859,-2.698 5.668,-2.387 8.363,0.045 4.128,3.722 -0.359,5.526 -2.099,7.428 -7.682,8.401 -16.7,15.599 -23.677,27.875 z"
       id="path135"
       inkscape:connector-curvature="0"
       style="fill:#b6b6b6;fill-rule:evenodd" /><path
       clip-rule="evenodd"
       d="m 418.48,319.791 c 5.752,-5.071 -4.3,-8.661 -1.358,-13.403 2.604,-2.111 2.783,0.3 4.066,1.638 8.225,8.57 14.398,7.25 18.483,-3.997 2.655,-7.311 4.04,-15.168 7.354,-22.134 4.258,-8.949 0.496,-10.257 -7.132,-9.405 4.763,-7.78 9.372,-5.485 13.927,0.213 -1.105,3.315 -2.3,6.606 -3.308,9.955 -5.287,17.607 -6.937,38.013 -31.512,40.675 -0.175,-1.181 -0.347,-2.36 -0.52,-3.542 z"
       id="path137"
       inkscape:connector-curvature="0"
       style="fill:#727272;fill-rule:evenodd" /><path
       clip-rule="evenodd"
       d="m 372.855,422.18 c -0.899,0.59 -1.797,1.178 -2.692,1.766 -2.585,-18.004 0.152,-35.848 1.416,-55.766 8.461,19.185 2.782,36.637 1.276,54 z"
       id="path139"
       inkscape:connector-curvature="0"
       style="fill:#b6b6b6;fill-rule:evenodd" /><path
       clip-rule="evenodd"
       d="m 468.198,491.489 c 3.983,2.581 12.577,4.613 10.232,8.643 -3.533,6.068 -10.03,-0.1 -15.141,-1.932 4.19,-0.369 5.357,-2.949 4.909,-6.711 z"
       id="path141"
       inkscape:connector-curvature="0"
       style="fill:#727272;fill-rule:evenodd" /><path
       clip-rule="evenodd"
       d="m 296.881,220.316 c -4.003,1.466 -8.004,2.929 -12.784,4.679 -0.186,-10.75 6.571,-21.271 -0.023,-31.468 8.059,-6.751 4.731,-18.093 13.413,-26.731 11.351,-11.288 25.529,-18.015 36.463,-29.098 1.432,-1.452 3.748,-2.909 5.176,-1.571 2.45,2.297 1.568,5.795 1.346,8.887 -0.817,1.304 -1.188,2.866 -2.335,3.976 1.854,0.301 3.113,-1.241 4.774,-1.542 6.104,-1.077 6.454,1.734 5.096,6.722 -0.985,3.603 2.378,7.956 4.229,3.572 4.05,-9.6 18.591,-9.314 18.758,-22.139 3.598,15.026 8.541,29.433 2.783,44.445 -0.563,1.467 -3.182,2.147 -4.847,3.192 -1.484,-0.37 -1.7,-1.821 -2.419,-2.842 -3.858,-4.721 -6.376,-13.568 -12.043,-13.009 -7.046,0.695 -4.269,10.232 -6.527,15.637 -2.118,5.068 -4.628,9.793 -7.566,14.359 -5.911,0.506 -1.847,-5.501 -4.64,-7.238 -7.758,5.201 -15.471,10.309 -21.233,17.788 -5.865,2.798 -7.207,-0.237 -6.12,-5.183 0.861,-3.91 3.563,-7.306 4.614,-11.902 -0.992,0.444 -1.177,0.478 -1.185,0.535 -0.833,6.116 -4.509,15.85 -8.086,14.077 -7.702,-3.813 -0.431,-11.235 1.022,-17.153 1.727,-3.322 3.714,-6.487 6.198,-9.33 -1.983,1.898 -3.659,4.03 -5.166,6.305 -4.915,8.45 -8.737,17.014 -5.804,27.256 0.788,2.747 0.621,6.265 -3.094,7.776 z"
       id="path143"
       inkscape:connector-curvature="0"
       style="fill:#b6b6b6;fill-rule:evenodd" /><path
       clip-rule="evenodd"
       d="m 394.98,175.747 c 0.476,-2.565 0.949,-5.132 1.869,-10.104 -5.986,7.188 -15.085,10.424 -7.552,20.186 1.582,2.053 0.34,4.718 -2.275,5.723 -3.354,1.288 -3.983,-1.234 -4.344,-3.671 -0.796,-5.386 -3.845,-11.09 -0.935,-16.148 3.148,-5.482 1.801,-9.597 -1.265,-14.07 -3.37,-4.918 -2.563,-10.12 -1.64,-15.205 10.367,3.581 16.018,13.73 25.919,16.725 2.85,-3.9 -0.407,-5.149 -1,-7.182 -1.653,-5.712 0.301,-7.751 6.414,-7.27 17.491,1.38 30.632,11.658 40.456,24.003 4.052,5.091 15.27,16.005 2.661,25.843 -1.001,0.781 -1.302,2.789 -1.444,4.273 -0.377,3.927 -0.396,9.412 -4.829,9.443 -5.777,0.04 -4.4,-6.21 -5.229,-10.143 -0.315,-1.522 -0.171,-3.146 -0.19,-4.726 -0.067,-5.493 0.895,-12.902 -5.954,-13.649 -7.518,-0.821 -3.81,7.927 -6.706,12.208 -7.971,-2.774 -11.475,-9.075 -13.022,-16.54 -0.948,-4.585 -0.096,-10.024 -6.105,-11.45 -6.765,-1.611 -3.384,6.846 -7.616,8.283 -1.708,0.582 -2.972,2.472 -4.437,3.768 -1.028,0.872 -1.954,0.773 -2.776,-0.297 z"
       id="path145"
       inkscape:connector-curvature="0"
       style="fill:#b6b6b6;fill-rule:evenodd" /><path
       clip-rule="evenodd"
       d="m 435.051,218.287 c 8.096,0.775 14.821,-1.273 21.892,-6.135 8.296,-5.713 18.353,-9.585 27.995,-0.824 2.604,2.364 6.021,3.887 4.973,8.415 -1.346,5.815 -6.559,6.552 -10.828,7.608 -3.354,0.829 -9.062,2.785 -10.212,-2.299 -2.18,-9.643 -7.49,-8.011 -12.806,-4.212 -8.178,5.842 -14.518,2.657 -20.883,-2.719 l -0.131,0.166 z"
       id="path147"
       inkscape:connector-curvature="0"
       style="fill:#b6b6b6;fill-rule:evenodd" /><path
       clip-rule="evenodd"
       d="m 342.126,227.033 c 9.643,-17.573 20.782,-13.419 32.088,-6.193 6.121,3.914 10.723,10.231 15.893,15.58 1.512,1.561 3.806,3.319 1.181,5.813 -2.417,2.3 -4.793,2.213 -7.141,-0.239 -2.165,-2.264 -4.459,-4.406 -6.666,-6.635 -14.159,-14.318 -14.156,-14.321 -32.615,-5.309 -2.197,0.157 -3.559,-0.439 -2.74,-3.017 z"
       id="path149"
       inkscape:connector-curvature="0"
       style="fill:#b6b6b6;fill-rule:evenodd" /><path
       clip-rule="evenodd"
       d="m 296.881,220.316 c -0.451,-13.229 -3.106,-26.893 7.438,-37.969 4.486,-0.091 4.341,2.429 3.131,5.552 -1.609,5.376 -3.215,10.751 -4.822,16.128 0.417,0.114 0.836,0.229 1.257,0.342 2.986,-5.309 5.973,-10.616 9.342,-16.607 3.441,6.935 -1.761,10.915 -3.036,15.785 -1.563,5.977 1.474,3.337 3.795,1.986 0.925,0.752 1.491,1.713 1.711,2.884 -0.563,5.218 -3.51,8.408 -8.443,9.9 -2.907,3.533 -6.152,5.295 -10.373,1.999 z"
       id="path151"
       inkscape:connector-curvature="0"
       style="fill:#727272;fill-rule:evenodd" /><path
       clip-rule="evenodd"
       d="m 399.432,237.216 c -6.75,-0.756 -7.303,-6.901 -9.843,-10.765 -2.317,-3.521 -9.514,-7.076 -5.251,-11.307 4.171,-4.141 10.022,0.212 14.434,3.503 1.866,1.391 3.828,2.684 5.551,4.239 2.633,2.38 8.834,3.844 6.748,7.562 -1.913,3.414 -7.709,4.654 -11.639,6.768 z"
       id="path153"
       inkscape:connector-curvature="0"
       style="fill:#b6b6b6;fill-rule:evenodd" /><path
       clip-rule="evenodd"
       d="m 359.916,208.216 c 8.385,-3.913 13.937,-6.68 19.629,-9.126 14.609,-6.277 15.764,-5.583 19.572,12.023 -7.222,-5.747 -13.681,-7.015 -20.631,-0.352 -5.395,5.17 -10.642,1.017 -18.57,-2.545 z"
       id="path155"
       inkscape:connector-curvature="0"
       style="fill:#b6b6b6;fill-rule:evenodd" /><path
       clip-rule="evenodd"
       d="m 230.784,256.297 c 1.118,-11.72 10.891,-17.429 17.907,-28.438 2.206,8.125 1.648,13.388 1.062,18.651 -1.604,4.759 -3.296,9.56 -7.906,12.269 -4.29,2.523 -8.54,3.513 -11.063,-2.482 z"
       id="path157"
       inkscape:connector-curvature="0"
       style="fill:#b6b6b6;fill-rule:evenodd" /><path
       clip-rule="evenodd"
       d="m 342.126,227.033 c 0.913,1.006 1.826,2.011 2.739,3.017 -3.332,6.892 -9.229,11.596 -14.637,16.604 -7.589,7.025 -19.225,6.529 -26.604,-0.573 -1.419,-1.364 -3.39,-3.037 -2.07,-4.832 0.861,-1.174 3.398,-1.415 5.21,-1.491 1.455,-0.063 3.216,0.382 4.386,1.23 10.497,7.606 17.928,4.128 24.013,-6.061 1.769,-2.961 4.612,-5.281 6.963,-7.894 z"
       id="path159"
       inkscape:connector-curvature="0"
       style="fill:#b6b6b6;fill-rule:evenodd" /><path
       clip-rule="evenodd"
       d="m 219.691,293.894 c -6.462,-3.458 -12.729,-11.255 -19.936,1.184 0.446,-7.528 12.719,-21.087 17.985,-21.764 0.733,-0.094 1.603,-0.187 2.222,0.112 3.625,1.733 3.406,17.687 -0.237,20.437 0,-0.003 -0.034,0.031 -0.034,0.031 z"
       id="path161"
       inkscape:connector-curvature="0"
       style="fill:#b6b6b6;fill-rule:evenodd" /><path
       clip-rule="evenodd"
       d="m 413.773,201.723 c 9.673,-1.146 21.309,-8.457 25.765,9.381 -9.366,-3.233 -18.344,-6.057 -25.347,3.403 -1.228,1.661 -4.793,1.348 -6.499,-0.513 -2.268,-2.471 0.16,-4.351 1.866,-5.767 2.191,-1.816 4.158,-3.6 4.338,-6.649 l -0.123,0.145 z"
       id="path163"
       inkscape:connector-curvature="0"
       style="fill:#b6b6b6;fill-rule:evenodd" /><path
       clip-rule="evenodd"
       d="m 487.17,204.377 c -9.617,-5.849 -17.371,-8.35 -24.645,0.226 -1.876,2.212 -5.276,3.025 -7.374,0.761 -2.943,-3.175 1.145,-4.639 2.729,-6.335 11.173,-11.959 23.056,-10.559 29.29,5.348 z"
       id="path165"
       inkscape:connector-curvature="0"
       style="fill:#b6b6b6;fill-rule:evenodd" /><path
       clip-rule="evenodd"
       d="m 314.379,209.028 c -0.131,-1.163 -0.26,-2.326 -0.393,-3.491 6.447,-9.659 17.645,-17.843 27.063,-19.782 3.159,4.072 -6.978,7.375 -0.673,11.629 -2.764,4.315 -5.559,8.548 -11.556,4.439 -6.557,-1.096 -7.362,9.346 -14.441,7.205 z"
       id="path167"
       inkscape:connector-curvature="0"
       style="fill:#727272;fill-rule:evenodd" /><path
       clip-rule="evenodd"
       d="m 314.379,209.028 c 5.445,-3.749 8.712,-10.181 15.855,-13.055 -0.58,2.399 -0.996,4.124 -1.413,5.851 -2.645,5.235 -4.807,10.795 -8.059,15.62 -3.712,5.509 -8.486,8.864 -13.51,0.876 2.377,-3.098 4.752,-6.195 7.127,-9.292 z"
       id="path169"
       inkscape:connector-curvature="0"
       style="fill:#b6b6b6;fill-rule:evenodd" /><path
       clip-rule="evenodd"
       d="m 365.848,233.23 c 6.45,2.964 9.588,7.065 12.741,10.973 2.55,3.163 2.411,6.917 -1.379,9.047 -4.757,2.673 -6.115,-1.136 -7.151,-4.699 -1.293,-4.459 -2.464,-8.952 -4.211,-15.321 z"
       id="path171"
       inkscape:connector-curvature="0"
       style="fill:#b6b6b6;fill-rule:evenodd" /><path
       clip-rule="evenodd"
       d="m 394.98,175.747 c 0.925,0.099 1.851,0.196 2.775,0.296 2.379,10.408 13.327,15.472 16.018,25.682 0,-0.001 0.12,-0.142 0.12,-0.145 -8.401,2.247 -10.769,-3.64 -13.12,-9.66 -2.082,-5.338 -6.619,-9.793 -5.793,-16.173 z"
       id="path173"
       inkscape:connector-curvature="0"
       style="fill:#b6b6b6;fill-rule:evenodd" /><path
       clip-rule="evenodd"
       d="m 435.182,218.12 c -10.282,3.237 1.765,5.905 -0.079,9.223 -8.238,2.209 -9.818,-5.398 -13.36,-9.926 -1.377,-1.765 -0.533,-3.818 1.847,-4.46 5.258,-1.422 9.132,0.359 11.462,5.332 -0.001,-0.002 0.13,-0.169 0.13,-0.169 z"
       id="path175"
       inkscape:connector-curvature="0"
       style="fill:#b6b6b6;fill-rule:evenodd" /><path
       clip-rule="evenodd"
       d="m 343.607,241.545 c 3.375,-5.816 5.673,-11.215 12.199,-8.319 2.86,1.271 4.257,5.587 2.639,8.16 -4.174,6.611 -8.928,-0.28 -14.838,0.159 z"
       id="path177"
       inkscape:connector-curvature="0"
       style="fill:#b6b6b6;fill-rule:evenodd" /><path
       clip-rule="evenodd"
       d="m 335.294,218.535 c -1.38,-0.764 -2.758,-1.525 -4.137,-2.286 6.366,-6.366 9.334,-20.065 22.975,-10.655 0.499,0.344 0.562,1.321 1.111,2.729 -7.885,1.1 -18.188,-2.021 -19.949,10.212 z"
       id="path179"
       inkscape:connector-curvature="0"
       style="fill:#b6b6b6;fill-rule:evenodd" /><path
       clip-rule="evenodd"
       d="m 230.784,256.297 c 12.166,8.068 12.874,-6.085 18.969,-9.785 0.858,0.02 1.713,0.043 2.572,0.065 -2.59,9.918 -9.199,15.762 -18.819,18.555 1.41,-3.661 -6.75,-4.371 -2.722,-8.835 z"
       id="path181"
       inkscape:connector-curvature="0"
       style="fill:#727272;fill-rule:evenodd" /><path
       clip-rule="evenodd"
       d="m 366.511,180.398 c 0.806,0.946 1.614,1.893 2.419,2.841 -4.481,4.938 -0.468,13.4 -8.549,18.476 -1.745,-8.932 -2.214,-16.168 6.13,-21.317 z"
       id="path183"
       inkscape:connector-curvature="0"
       style="fill:#b6b6b6;fill-rule:evenodd" /><path
       clip-rule="evenodd"
       d="m 192.781,325.05 c -3.907,-1.39 -3.907,-1.39 -4.221,-12.36 -0.158,-3.288 1.929,-5.267 4.167,-7.16 2.144,0.903 2.981,2.635 3.074,4.841 -3.886,4.299 -1.389,9.915 -3.02,14.679 z"
       id="path185"
       inkscape:connector-curvature="0"
       style="fill:#727272;fill-rule:evenodd" /><path
       clip-rule="evenodd"
       d="m 458.589,262.417 c 4.719,-7.695 9.438,-15.387 14.154,-23.082 0.707,1.585 1.418,3.17 2.127,4.756 -5.336,7.242 -10.667,14.486 -15.997,21.729 -1.186,-1.046 -1.278,-2.177 -0.284,-3.403 z"
       id="path187"
       inkscape:connector-curvature="0"
       style="fill:#727272;fill-rule:evenodd" /><path
       clip-rule="evenodd"
       d="m 342.911,147.448 c -2.91,3.942 -6.177,7.396 -12.266,10.032 1.328,-7.422 6.071,-9.535 9.826,-12.466 0.813,0.812 1.625,1.625 2.44,2.434 z"
       id="path189"
       inkscape:connector-curvature="0"
       style="fill:#727272;fill-rule:evenodd" /><path
       clip-rule="evenodd"
       d="m 458.589,262.417 c 0.096,1.135 0.188,2.268 0.284,3.403 -1.685,2.294 -3.369,4.588 -5.053,6.882 -4.609,-2.207 -9.219,-4.343 -13.927,-0.213 -12.449,10.358 -12.258,10.231 -21.342,-3.436 -3.122,-4.699 -7.444,-8.601 -13.563,-15.514 14.305,2.682 25.2,9.357 37.312,7.551 1.576,-0.695 1.875,-3.801 4.557,-2.416 3.748,1.76 7.158,4.576 11.732,3.743 z"
       id="path191"
       inkscape:connector-curvature="0"
       style="fill:#727272;fill-rule:evenodd" /><path
       clip-rule="evenodd"
       d="m 150.964,279.448 c 5.519,8.147 5.013,15.279 2.509,22.566 -1.087,3.169 -1.596,8.493 -5.822,6.967 -4.076,-1.473 -7.783,-5.857 -5.391,-11.438 2.432,-5.674 5.335,-11.147 8.704,-18.095 z"
       id="path193"
       inkscape:connector-curvature="0"
       style="fill:#b6b6b6;fill-rule:evenodd" /><path
       clip-rule="evenodd"
       d="m 132.705,257.651 c -4.289,-3.132 -2.77,-7.757 -3.118,-11.838 -0.372,-4.372 0.017,-8.521 4.025,-11.487 2.098,-1.553 3.669,-0.796 4.928,0.799 3.105,3.944 3.976,8.643 2.304,13.201 -1.44,3.917 -3.623,7.787 -8.139,9.325 z"
       id="path195"
       inkscape:connector-curvature="0"
       style="fill:#b6b6b6;fill-rule:evenodd" /><path
       clip-rule="evenodd"
       d="m 136.663,282.54 c -1.061,-7.911 0.688,-15.395 3.75,-22.587 1.716,-4.034 3.949,-4.397 6.462,-0.335 4.606,7.447 -1.603,21.22 -10.347,22.73 l 0.135,0.192 z"
       id="path197"
       inkscape:connector-curvature="0"
       style="fill:#b6b6b6;fill-rule:evenodd" /><path
       clip-rule="evenodd"
       d="m 136.528,282.348 c -0.201,2.447 -0.462,4.976 -3.952,4.068 -6.475,-1.681 -11.205,-5.348 -13.123,-12.051 -0.739,-2.58 -2.611,-5.621 0.1,-7.576 3.122,-2.255 6.406,0.161 8.225,2.351 3.405,4.099 5.971,8.89 8.884,13.396 0.001,0.004 -0.134,-0.188 -0.134,-0.188 z"
       id="path199"
       inkscape:connector-curvature="0"
       style="fill:#b6b6b6;fill-rule:evenodd" /><path
       clip-rule="evenodd"
       d="m 155.739,306.276 c 6.355,0.184 5.037,4.934 4.673,8.532 -0.426,4.22 -1.661,8.354 -2.546,12.524 l 0.128,-0.12 c -2.005,2.005 -2.757,6.291 -6.812,4.718 -3.015,-1.169 -2.634,-4.35 -2.505,-7.07 -2.052,-7.867 4.014,-12.652 7.062,-18.584 z"
       id="path201"
       inkscape:connector-curvature="0"
       style="fill:#b6b6b6;fill-rule:evenodd" /><path
       clip-rule="evenodd"
       d="m 148.678,324.859 c 2.053,4.952 4.815,7.098 9.316,2.353 0.37,4.896 -1.895,8.975 -4.239,12.95 -1.193,2.025 -1.791,6.072 -5.393,3.912 -2.211,-1.323 -5.967,-3.224 -3.688,-7.13 2.253,-3.858 2.103,-7.196 -0.978,-10.409 1.661,-0.558 3.322,-1.117 4.982,-1.676 z"
       id="path203"
       inkscape:connector-curvature="0"
       style="fill:#727272;fill-rule:evenodd" /><path
       clip-rule="evenodd"
       d="m 107.43,208.423 c -7.491,-2.106 -15.069,-13.596 -13.433,-19.171 0.369,-1.263 1.733,-2.667 2.968,-3.139 1.626,-0.618 2.896,0.788 3.442,2.301 2.316,6.424 4.533,12.884 7.023,20.009 z"
       id="path205"
       inkscape:connector-curvature="0"
       style="fill:#b6b6b6;fill-rule:evenodd" /><path
       clip-rule="evenodd"
       d="m 124.705,251.748 c 0.455,3.057 -0.542,4.351 -3.081,4.121 -7.601,-0.687 -8.611,-7.063 -10.541,-12.501 -0.793,-2.233 0.661,-4.519 2.771,-3.884 6.205,1.867 8.747,7.334 10.851,12.264 z"
       id="path207"
       inkscape:connector-curvature="0"
       style="fill:#b6b6b6;fill-rule:evenodd" /><path
       clip-rule="evenodd"
       d="m 120.329,223.712 c 1.891,-3.31 1.348,-8.786 6.169,-9.066 4.352,-0.253 5.295,4.125 5.131,7.643 -0.188,4.09 -2.618,8.611 -6.091,9.168 -4.414,0.707 -3.329,-5.066 -5.209,-7.745 z"
       id="path209"
       inkscape:connector-curvature="0"
       style="fill:#b6b6b6;fill-rule:evenodd" /><path
       clip-rule="evenodd"
       d="m 117.633,229.298 c -0.168,2.063 -0.882,4.045 -2.605,3.377 -4.893,-1.897 -8.281,-5.899 -10.624,-10.341 -1.06,-2.008 1.865,-3.389 3.69,-3.114 5.856,0.881 8.129,5.349 9.539,10.078 z"
       id="path211"
       inkscape:connector-curvature="0"
       style="fill:#b6b6b6;fill-rule:evenodd" /><path
       clip-rule="evenodd"
       d="m 115.175,205.081 c -2.074,-4.832 -4.851,-9.607 -1.692,-14.276 1.231,-1.82 3.788,-0.309 4.894,1.216 3.843,5.295 -0.973,8.872 -3.202,13.06 z"
       id="path213"
       inkscape:connector-curvature="0"
       style="fill:#b6b6b6;fill-rule:evenodd" /><path
       clip-rule="evenodd"
       d="m 446.857,258.674 c -2.125,-0.333 -1.354,4.786 -4.557,2.416 -4.537,-15.782 -20.802,-9.103 -30.707,-15.379 11.68,-6.834 22.707,-2.605 35.264,12.963 z"
       id="path215"
       inkscape:connector-curvature="0"
       style="fill:#727272;fill-rule:evenodd" /><path
       clip-rule="evenodd"
       d="m 233.635,416.917 c 2.789,0.833 6.989,-1.498 8.237,2.339 1.061,3.257 -1.833,5.898 -4.437,7.505 -5.801,3.587 -11.472,8.011 -19.007,6.556 -0.938,-4.021 2.848,-5.796 3.152,-8.904 1.369,-6.762 4.654,-10.438 12.055,-7.496 z"
       id="path217"
       inkscape:connector-curvature="0"
       style="fill:#b6b6b6;fill-rule:evenodd" /><path
       clip-rule="evenodd"
       d="m 226.491,405.475 c 1.376,-2.81 2.878,-5.587 5.929,-6.869 4.919,-2.063 11.059,-8.823 14.87,-1.938 3.164,5.716 -4.032,9.855 -9.182,12.568 -1.958,1.03 -4.48,0.987 -6.746,1.435 -4.683,1.135 -6.618,-0.305 -4.871,-5.196 z"
       id="path219"
       inkscape:connector-curvature="0"
       style="fill:#b6b6b6;fill-rule:evenodd" /><path
       clip-rule="evenodd"
       d="m 236.88,435.154 c -4.319,5.301 -6.967,11.753 -13.398,14.451 -2.549,1.071 -5.8,1.846 -7.807,-0.187 -2.391,-2.425 0.1,-4.991 1.447,-7.253 4.498,-7.55 12.044,-7.292 19.758,-7.011 z"
       id="path221"
       inkscape:connector-curvature="0"
       style="fill:#b6b6b6;fill-rule:evenodd" /><path
       clip-rule="evenodd"
       d="m 241.028,379.401 c -4.339,0.594 -6.289,9.316 -11.071,4.877 -2.725,-2.532 -2.096,-8.924 0.86,-13.131 1.877,-2.67 2.887,-7.121 7.646,-5.428 3.85,1.37 2.767,5.11 2.915,8.057 0.096,1.913 -0.327,3.855 -0.518,5.784 l 0.168,-0.159 z"
       id="path223"
       inkscape:connector-curvature="0"
       style="fill:#b6b6b6;fill-rule:evenodd" /><path
       clip-rule="evenodd"
       d="m 226.491,405.475 c -0.074,3.324 1.71,4.902 4.871,5.196 0.757,2.081 1.515,4.164 2.273,6.245 -5.635,-0.104 -8.332,4.519 -12.055,7.496 -0.861,-0.055 -1.722,-0.109 -2.583,-0.163 1.517,-5.673 -0.959,-10.874 -1.929,-16.25 0.236,-2.524 -0.329,-5.266 1.967,-7.232 2.373,0.593 1.638,3.041 2.651,4.445 1.602,0.088 3.202,0.177 4.805,0.263 z"
       id="path225"
       inkscape:connector-curvature="0"
       style="fill:#727272;fill-rule:evenodd" /><path
       clip-rule="evenodd"
       d="m 276.49,333.437 c -3.696,7.429 -6.054,13.84 -13.617,15.452 -2.37,0.504 -5.213,3.63 -7.108,-0.06 -1.468,-2.864 0.916,-5.187 2.974,-7.006 4.673,-4.122 9.908,-7.198 17.751,-8.386 z"
       id="path227"
       inkscape:connector-curvature="0"
       style="fill:#b6b6b6;fill-rule:evenodd" /><path
       clip-rule="evenodd"
       d="m 240.86,379.561 c 4.115,1.063 7.634,-8.622 12.066,-0.735 2.303,4.1 0.732,6.978 -3.009,9.555 -3.508,2.416 -7.659,3.951 -10.788,1.72 -5.567,-3.97 2.686,-6.792 1.897,-10.701 l -0.166,0.161 z"
       id="path229"
       inkscape:connector-curvature="0"
       style="fill:#b6b6b6;fill-rule:evenodd" /><path
       clip-rule="evenodd"
       d="m 252.656,367.582 c -7.943,2.652 -7.894,-4.504 -9.521,-8.45 -3.033,-7.342 5.958,-7.361 6.791,-14.154 3.945,5.73 2.341,9.62 2.816,13.215 1.572,3.146 1.526,6.274 -0.086,9.389 z"
       id="path231"
       inkscape:connector-curvature="0"
       style="fill:#b6b6b6;fill-rule:evenodd" /><path
       clip-rule="evenodd"
       d="m 252.656,367.582 c -2.049,-3.148 -2.208,-6.28 0.085,-9.389 1.737,-0.889 3.392,-2.072 5.234,-2.587 2.025,-0.568 4.346,-3.288 6.223,-0.704 1.792,2.466 0.818,5.364 -1.429,7.381 -2.892,2.601 -5.649,5.634 -10.113,5.299 z"
       id="path233"
       inkscape:connector-curvature="0"
       style="fill:#b6b6b6;fill-rule:evenodd" /><path
       clip-rule="evenodd"
       d="m 221.687,405.212 c -0.885,-1.481 -1.769,-2.963 -2.651,-4.445 -0.042,-2.328 -0.332,-4.688 -0.065,-6.982 0.398,-3.435 -1.609,-9.361 3.987,-8.834 4.087,0.383 3.803,6.126 3.683,9.96 -0.127,4.06 -2.645,7.177 -4.954,10.301 z"
       id="path235"
       inkscape:connector-curvature="0"
       style="fill:#b6b6b6;fill-rule:evenodd" /><path
       clip-rule="evenodd"
       d="m 489.089,463.28 c -13.565,-1.881 -27.144,-5.454 -39.539,4.052 10.815,-15.252 20.358,-16.39 39.539,-4.052 z"
       id="path237"
       inkscape:connector-curvature="0"
       style="fill:#727272;fill-rule:evenodd" /><path
       clip-rule="evenodd"
       d="m 444.631,433.979 c 8.369,-4.413 11.777,-16.956 25.408,-12.841 -7.873,5.151 -15.741,10.306 -23.614,15.46 -0.6,-0.872 -1.196,-1.745 -1.794,-2.619 z"
       id="path239"
       inkscape:connector-curvature="0"
       style="fill:#727272;fill-rule:evenodd" /><path
       clip-rule="evenodd"
       d="m 462.537,469.95 c -4.313,10.092 -14.282,8.989 -21.959,13.909 5.894,-8.192 11.883,-11.95 21.959,-13.909 z"
       id="path241"
       inkscape:connector-curvature="0"
       style="fill:#727272;fill-rule:evenodd" /><path
       clip-rule="evenodd"
       d="m 307.45,187.899 c -0.351,-2.24 -0.755,-4.452 -3.13,-5.552 2.811,-3.64 6.151,-6.51 13.258,-8.193 -4.145,5.626 -7.137,9.685 -10.128,13.745 z"
       id="path243"
       inkscape:connector-curvature="0"
       style="fill:#727272;fill-rule:evenodd" /></g></svg>