<?xml version="1.0"?>
<svg version="1.1" xmlns="http://www.w3.org/2000/svg" xmlns:xlink="http://www.w3.org/1999/xlink" width="25.6625" height="26">
    <desc iVinci="yes" version="4.6" gridStep="20" showGrid="no" snapToGrid="no" codePlatform="0"/>
    <g id="Layer1" name="Layer 1" opacity="1">
        <g id="Shape1">
            <desc shapeID="1" type="0" basicInfo-basicType="0" basicInfo-roundedRectRadius="12" basicInfo-polygonSides="6" basicInfo-starPoints="5" bounding="rect(-12.8312,-13,25.6625,26)" text="" font-familyName="" font-pixelSize="20" font-bold="0" font-underline="0" font-alignment="1" strokeStyle="0" markerStart="0" markerEnd="0" shadowEnabled="0" shadowOffsetX="0" shadowOffsetY="2" shadowBlur="4" shadowOpacity="160" blurEnabled="0" blurRadius="4" transform="matrix(0.974185,0,0,1,12.5,13)" pers-center="0,0" pers-size="0,0" pers-start="0,0" pers-end="0,0" locked="0" mesh="" flag=""/>
            <path id="shapePath1" d="M12.4747,14.0659 C14.0217,14.054 15.5849,14.9585 16.6005,16.1641 C15.4936,17.2813 13.3891,18.2502 11.8385,17.9416 C10.3267,17.6392 8.80452,16.1107 10.4283,14.7081 C11.0718,14.2661 11.7716,14.0714 12.4747,14.0659 M15.8216,11.1267 C17.0902,11.1169 18.3722,11.8588 19.2056,12.8476 C18.2972,13.7636 16.5712,14.5584 15.2998,14.3053 C14.0602,14.0569 12.8119,12.8041 14.1433,11.6535 C14.671,11.2909 15.2449,11.1312 15.8216,11.1267 M19.3982,8.35011 C20.5565,8.34113 21.7266,9.01824 22.4868,9.92116 C21.658,10.7573 20.0822,11.4828 18.9216,11.2513 C17.7905,11.0252 16.6506,9.88093 17.8658,8.83085 C18.3478,8.50004 18.8718,8.3542 19.3982,8.35011 M10.5258,6.26516 C11.7734,7.36335 12.9576,9.55435 12.7797,11.2609 C12.6059,12.9245 11.1725,14.71 9.58549,13.0786 C7.9474,10.9766 8.8562,8.02256 10.5258,6.26516 M22.1056,5.38364 C23.1908,5.37526 24.2875,6.00959 25,6.85489 C24.2226,7.63912 22.7469,8.31847 21.659,8.10244 C20.5984,7.88955 19.5312,6.81833 20.6701,5.83398 C21.1215,5.52405 21.6124,5.38745 22.1056,5.38364 M14.3923,3.70127 C15.4946,4.67187 16.5412,6.60814 16.3839,8.11556 C16.2302,9.58594 14.9638,11.1633 13.5619,9.72205 C12.114,7.86458 12.9166,5.25484 14.3923,3.70127 M-9.53674e-07,2.5708 C11.8266,10.5086 7.55057,18.4462 4.67339,21.9188 L4.59431,22.0128 L4.61197,21.9981 C6.70751,20.2857 9.47669,18.6668 12.4768,18.6401 C15.7146,18.6112 19.2213,20.4367 22.4405,26 C22.4405,26 14.0818,15.0906 1.03636,25.7443 L1.01956,25.7582 L0.979499,25.7928 C0.833364,25.9175 0.743246,25.9877 0.729241,25.9985 L0.727338,26 L0.730103,25.9962 C0.741201,25.9812 0.785415,25.9217 0.860617,25.8248 L0.862134,25.8229 L0.898044,25.7757 C8.01134,16.3003 0.727324,9.19056 0.727324,9.19056 C5.17951,12.8678 5.87517,16.434 5.19147,19.3285 L5.14834,19.4972 L5.18415,19.3879 C8.02407,10.4372 -9.53674e-07,2.5708 -9.53674e-07,2.5708 M17.7739,1.63756 C18.7241,2.47361 19.6264,4.14252 19.4902,5.44127 C19.3581,6.70884 18.2661,8.06798 17.0585,6.8264 C15.8101,5.22527 16.5024,2.9755 17.7739,1.63756 M22.5485,0 C22.9854,0.971659 23.1061,2.55597 22.5655,3.49161 C22.0383,4.40393 20.7533,5.04516 20.257,3.67586 C19.8511,2.01962 21.134,0.562388 22.5485,0 Z" style="stroke:none;fill-rule:nonzero;fill:#727272;fill-opacity:1;"/>
        </g>
    </g>
</svg>
