<?xml version="1.0"?>
<svg version="1.1" xmlns="http://www.w3.org/2000/svg" xmlns:xlink="http://www.w3.org/1999/xlink" width="26" height="25.2948">
    <desc iVinci="yes" version="4.6" gridStep="20" showGrid="no" snapToGrid="no" codePlatform="0"/>
    <g id="Layer1" name="Layer 1" opacity="1">
        <g id="Shape1">
            <desc shapeID="1" type="0" basicInfo-basicType="0" basicInfo-roundedRectRadius="12" basicInfo-polygonSides="6" basicInfo-starPoints="5" bounding="rect(-13,-12.6474,26,25.2947)" text="" font-familyName="" font-pixelSize="20" font-bold="0" font-underline="0" font-alignment="1" strokeStyle="0" markerStart="0" markerEnd="0" shadowEnabled="0" shadowOffsetX="0" shadowOffsetY="2" shadowBlur="4" shadowOpacity="160" blurEnabled="0" blurRadius="4" transform="matrix(1,0,0,0.988347,13,12.5)" pers-center="0,0" pers-size="0,0" pers-start="0,0" pers-end="0,0" locked="0" mesh="" flag=""/>
            <path id="shapePath1" d="M1.18847,18.2735 C4.3637,18.2698 7.5085,20.2768 8.69822,21.1274 L8.35413,25 L0,21.5898 L0.881156,18.2802 C0.983582,18.2758 1.08604,18.2736 1.18847,18.2735 M17.8555,17.5028 C22.6379,21.0898 25.2618,21.4251 25.508,21.4494 L26,24.575 L18.0473,22.0143 L18.0359,21.7448 L17.8555,17.5028 M16.4328,17.3115 L16.6233,21.7901 L16.6359,22.0797 L9.77275,24.9872 L10.1168,21.1123 L16.4328,17.3115 M13.2462,14.6466 L13.2462,17.5426 L10.27,19.3959 L10.6015,15.6639 L13.2462,14.6466 M24.3441,14.0553 L25.244,19.7705 C24.1524,19.7125 22.1861,18.6036 20.462,17.4854 C21.5897,14.2051 24.2767,14.0584 24.3441,14.0553 M6.87903,9.18775 L9.67159,10.1793 L9.65697,10.3457 L9.34741,13.8258 C5.36738,11.909 6.73116,9.43345 6.87903,9.18775 M3.61156,8.02791 L5.42912,8.67333 C3.75781,12.2427 7.58753,14.697 9.19506,15.54 L8.83756,19.5616 C2.53459,15.6702 1.29675,16.7718 1.29675,16.7718 L1.14887,17.2768 L3.61156,8.02791 M16.0367,7.97307 L16.3605,15.6035 L14.7554,16.6031 L14.7233,13.3814 C14.5921,12.6677 13.7382,12.7974 13.7382,12.7974 L10.7571,13.9123 L11.0658,10.4386 L11.0939,10.1165 L16.0367,7.97307 M17.4476,7.91709 L18.8207,8.36887 L19.6077,11.3017 L20.0448,12.9282 L21.0486,11.5699 L22.5172,9.58461 L23.7018,9.97433 L24.1061,12.5423 C20.3852,13.0426 19.1063,16.561 19.1063,16.561 L19.2449,16.6706 C18.657,16.2654 18.1468,15.8984 17.7755,15.6257 L17.4476,7.91709 M21.8074,1.76046 C20.9814,1.77331 20.2504,2.3572 20.0922,3.19048 C19.9102,4.14334 20.5439,5.06038 21.5077,5.23966 C22.4715,5.41898 23.4004,4.79296 23.5814,3.84011 C23.7633,2.8878 23.1285,1.96996 22.1658,1.79086 C22.0453,1.76845 21.9254,1.75863 21.8074,1.76046 M21.8875,0.000150681 C22.088,0.00201988 22.291,0.0213346 22.4949,0.05931 C24.3601,0.406424 25.5873,2.18188 25.236,4.02455 C25.1122,4.67151 24.8107,5.24006 24.3907,5.69225 L22.4167,8.35968 L20.3928,11.0955 L19.5137,7.81932 L18.6568,4.62526 C18.4325,4.05354 18.3606,3.41571 18.4832,2.76773 C18.7961,1.1264 20.2552,-0.0150747 21.8875,0.000150681 Z" style="stroke:none;fill-rule:nonzero;fill:#727272;fill-opacity:1;"/>
        </g>
    </g>
</svg>
