<?xml version="1.0"?>
<svg version="1.1" xmlns="http://www.w3.org/2000/svg" xmlns:xlink="http://www.w3.org/1999/xlink" width="26" height="16.7164">
    <desc iVinci="yes" version="4.6" gridStep="20" showGrid="no" snapToGrid="no" codePlatform="0"/>
    <g id="Layer1" name="Layer 1" opacity="1">
        <g id="Shape1">
            <desc shapeID="1" type="0" basicInfo-basicType="0" basicInfo-roundedRectRadius="12" basicInfo-polygonSides="6" basicInfo-starPoints="5" bounding="rect(-13,-8.35819,26,16.7164)" text="" font-familyName="" font-pixelSize="20" font-bold="0" font-underline="0" font-alignment="1" strokeStyle="0" markerStart="0" markerEnd="0" shadowEnabled="0" shadowOffsetX="0" shadowOffsetY="2" shadowBlur="4" shadowOpacity="160" blurEnabled="0" blurRadius="4" transform="matrix(1,0,0,0.957145,13,8)" pers-center="0,0" pers-size="0,0" pers-start="0,0" pers-end="0,0" locked="0" mesh="" flag=""/>
            <path id="shapePath1" d="M4.79352,7.58122 C5.1593,7.784 5.78903,8.09829 6.52348,8.39649 C6.47721,8.44479 6.42777,8.4902 6.38386,8.54071 C5.07651,10.0441 4.51605,12.6546 4.49253,12.7653 L4.36054,13.392 L6.85303,14.0999 L6.73294,15.9914 L2.25605,16 L2.40865,13.5872 L0,12.9034 C0,12.9034 0.5332,10.3726 1.73633,8.98838 C2.82469,7.73668 4.58243,7.62061 4.79352,7.58122 M15.9978,7.568 C16.2086,7.60731 17.9664,7.72342 19.0547,8.97513 C20.2581,10.3594 20.7911,12.8903 20.7911,12.8903 L18.3824,13.5741 L18.5353,15.987 L13.0078,15.9764 L13.0078,15.9894 L7.46514,16 L7.61805,13.5871 L5.20934,12.9033 C5.20934,12.9033 5.74231,10.3724 6.94571,8.98812 C8.03381,7.73637 9.79183,7.6203 10.0026,7.58091 C10.5668,7.89351 11.7538,8.47196 12.9927,8.84615 L12.9927,8.83888 C14.2368,8.47005 15.4313,7.88188 15.9978,7.568 M21.2068,7.568 C21.4175,7.60731 23.1756,7.72342 24.2637,8.9751 C25.467,10.3593 26,12.8902 26,12.8902 L23.5914,13.574 L23.7442,15.9868 L19.2668,15.9782 L19.147,14.0867 L21.6402,13.3787 L21.508,12.7521 C21.4845,12.6413 20.9232,10.0308 19.6167,8.52743 C19.5736,8.47765 19.5249,8.43298 19.4791,8.38538 C20.2126,8.08695 20.8412,7.77051 21.2068,7.568 M18.3055,5.24521e-06 C21.7024,-0.005126 20.9968,3.528 20.9968,3.528 C21.9257,4.23312 20.6765,5.21395 20.6765,5.21395 C20.3885,6.13359 20.004,6.50142 20.004,6.50142 C19.5236,7.94213 18.1277,7.67003 18.1277,7.67003 L18.1277,7.66742 C18.0544,7.68092 16.7442,7.9017 16.2774,6.50142 C16.2774,6.50142 16.1248,6.35452 15.9396,6.01658 C15.9954,5.89169 16.0512,5.75677 16.1044,5.60469 C16.3874,5.34087 16.8677,4.79218 16.8621,4.12521 C16.8598,3.89421 16.7984,3.58468 16.5564,3.28263 C16.6085,2.70564 16.6062,1.58115 16.0037,0.664118 C16.4408,0.250649 17.1076,-0.0320053 18.1407,0.00295258 C18.1967,0.00105953 18.2516,8.63075e-05 18.3055,5.24521e-06 M12.7668,5.24521e-06 C12.8207,8.63075e-05 12.8757,0.00105953 12.9317,0.00295258 C16.5161,-0.118179 15.788,3.528 15.788,3.528 C16.7166,4.23312 15.4677,5.21395 15.4677,5.21395 C15.1794,6.13359 14.795,6.50142 14.795,6.50142 C14.3147,7.94213 12.9187,7.67003 12.9187,7.67003 L12.9187,7.66742 C12.8452,7.68092 11.5351,7.9017 11.068,6.50142 C11.068,6.50142 10.6837,6.13359 10.3954,5.21395 C10.3954,5.21395 9.14649,4.23312 10.0751,3.528 C10.0751,3.528 9.36956,-0.005126 12.7668,5.24521e-06 M7.55751,5.24521e-06 C7.61143,8.63075e-05 7.66638,0.00105953 7.72239,0.00295258 C8.75521,-0.0320053 9.42199,0.250555 9.8592,0.663788 C9.25644,1.58098 9.25352,2.70607 9.30613,3.28263 C9.06412,3.58468 9.00278,3.89421 9.00066,4.12521 C8.99563,4.79218 9.47622,5.34087 9.75894,5.60469 C9.81212,5.75669 9.86765,5.89158 9.92347,6.01643 C9.73858,6.35448 9.58595,6.50142 9.58595,6.50142 C9.1054,7.94213 7.70967,7.67003 7.70967,7.67003 L7.70967,7.66742 C7.63618,7.68092 6.32589,7.9017 5.85907,6.50142 C5.85907,6.50142 5.47479,6.13359 5.18647,5.21395 C5.18647,5.21395 3.93756,4.23312 4.86618,3.528 C4.86618,3.528 4.16063,-0.005126 7.55751,5.24521e-06 Z" style="stroke:none;fill-rule:nonzero;fill:#727272;fill-opacity:1;"/>
        </g>
    </g>
</svg>
