<svg version="1.1" xmlns="http://www.w3.org/2000/svg" xmlns:xlink="http://www.w3.org/1999/xlink" width="21.8428" height="26">
  <desc shapeID="1" type="0" basicInfo-basicType="0" basicInfo-roundedRectRadius="12" basicInfo-polygonSides="6" basicInfo-starPoints="5" bounding="rect(-10.9214,-13,21.8428,26)" text="" font-familyName="" font-pixelSize="20" font-bold="0" font-underline="0" font-alignment="1" strokeStyle="0" markerStart="0" markerEnd="0" shadowEnabled="0" shadowOffsetX="0" shadowOffsetY="2" shadowBlur="4" shadowOpacity="160" blurEnabled="0" blurRadius="4" transform="matrix(0.961413,0,0,1,10.5,13)" pers-center="0,0" pers-size="0,0" pers-start="0,0" pers-end="0,0" locked="0" mesh="" flag=""/>
  <path id="shapePath1" d="M11.2989,0 C11.2989,1.45858 11.2989,3.11536 11.2989,4.33415 L11.2989,4.3512 L11.4114,4.16279 C11.8917,3.38589 12.6486,2.46652 13.7111,2.02426 C14.2421,1.80313 14.7969,1.7234 15.3269,1.72623 C16.3387,1.73164 17.2599,2.03796 17.7512,2.23584 L11.2989,4.92018 L11.2989,5.03974 C11.2989,5.19861 11.2989,5.34322 11.2989,5.47107 L11.2989,5.53958 L11.3291,5.51934 C11.6945,5.27747 12.9929,4.50233 14.6455,4.48765 C15.5359,4.47974 16.5291,4.69252 17.5346,5.32828 C17.5346,5.32828 23.97,8.74016 19.3013,19.8296 C19.3013,19.8296 16.7143,25.4071 14.6952,25.8007 C14.6952,25.8007 13.1817,26.3265 11.7308,25.6701 C11.7308,25.6701 11.2889,24.9491 8.76481,25.8674 C8.76481,25.8674 6.05211,26.7857 4.03363,23.6361 C4.03363,23.6361 -4.4208,12.3494 3.15017,5.52507 C3.15017,5.52507 5.29536,3.75298 8.44953,4.86808 C8.44953,4.86808 9.2305,5.34833 10.2065,5.5331 L10.2576,5.54126 L10.2576,5.47107 C10.2576,4.44828 10.2576,2.35267 10.2576,0.466452 L10.2576,0.0587149 L10.9786,0.0587149 C11.0076,0.0587149 10.7782,0.00366974 11.2989,0 M10.2576,0 L10.2576,0.0587149 L10.1762,0.0587149 C10.1472,0.0587149 10.2576,0.00366974 10.2576,0 Z" style="stroke:none;fill-rule:nonzero;fill:#727272;fill-opacity:1;"/>
</svg>
