<?xml version="1.0"?>
<svg version="1.1" xmlns="http://www.w3.org/2000/svg" xmlns:xlink="http://www.w3.org/1999/xlink" width="26" height="23.7364">
    <desc iVinci="yes" version="4.6" gridStep="20" showGrid="no" snapToGrid="no" codePlatform="0"/>
    <g id="Layer1" name="Layer 1" opacity="1">
        <g id="Shape1">
            <desc shapeID="1" type="0" basicInfo-basicType="0" basicInfo-roundedRectRadius="12" basicInfo-polygonSides="6" basicInfo-starPoints="5" bounding="rect(-13,-11.8682,26,23.7364)" text="" font-familyName="" font-pixelSize="20" font-bold="0" font-underline="0" font-alignment="1" strokeStyle="0" markerStart="0" markerEnd="0" shadowEnabled="0" shadowOffsetX="0" shadowOffsetY="2" shadowBlur="4" shadowOpacity="160" blurEnabled="0" blurRadius="4" transform="matrix(1,0,0,0.968977,13,11.5)" pers-center="0,0" pers-size="0,0" pers-start="0,0" pers-end="0,0" locked="0" mesh="" flag=""/>
            <path id="shapePath1" d="M12.4062,0 C13.295,0.000146866 14.6986,0.16282 15.3435,1.10805 C15.3435,1.10805 21.1982,1.72822 17.8139,7.71085 C17.8139,7.71085 18.5915,7.75549 18.3163,8.61967 C18.3163,8.61967 18.0191,10.2588 17.4933,10.5028 C17.4933,10.5028 17.47,12.874 15.8926,14.6685 L15.8913,14.6684 L15.9072,14.7714 C16.3484,17.1871 20.5463,18.1471 20.5463,18.1471 C23.3933,18.8452 26,20.3408 26,20.3408 L26,23 L0,23 L0,19.6099 C0.0687828,19.3106 4.39051,17.9811 4.39051,17.9811 C6.55078,17.4162 7.47756,16.9509 7.47756,16.9509 C7.5114,16.7848 7.92297,16.5521 7.92297,16.5521 C8.90918,16.3609 9.38166,15.2255 9.56942,14.6019 L9.57218,14.5925 L9.56622,14.5857 C9.42269,14.4195 8.27177,13.0068 8.18649,10.3481 C8.18649,10.3481 7.77496,10.2147 7.40892,8.17634 C7.40892,8.17634 7.31792,7.55611 8.02671,7.4895 C8.02671,7.4895 7.08835,4.45355 7.75168,2.54833 C7.75168,2.54833 8.91755,0.531888 11.6164,0.0444393 C11.6164,0.0444393 11.9407,-7.62939e-05 12.4062,0 Z" style="stroke:none;fill-rule:nonzero;fill:#727272;fill-opacity:1;"/>
        </g>
    </g>
</svg>
